<mxfile host="app.diagrams.net" modified="2020-05-21T13:43:09.589Z" agent="5.0 (Windows NT 10.0; Win64; x64) AppleWebKit/537.36 (KHTML, like Gecko) Chrome/79.0.3945.130 Safari/537.36" etag="lcSkUrI-ifM9q4ulHi6m" version="13.1.3" type="github">
  <diagram name="Page-1" id="aaaa8250-4180-3840-79b5-4cada1eebb92">
    <mxGraphModel dx="5960" dy="2328" grid="1" gridSize="10" guides="0" tooltips="1" connect="1" arrows="1" fold="1" page="1" pageScale="1" pageWidth="850" pageHeight="1100" background="#ffffff" math="0" shadow="0">
      <root>
        <mxCell id="0" />
        <mxCell id="1" parent="0" />
        <mxCell id="Wtf6WgaonPSGz3_DOAq4-91" value="" style="verticalLabelPosition=bottom;html=1;verticalAlign=top;strokeWidth=1;align=center;outlineConnect=0;dashed=0;outlineConnect=0;shape=mxgraph.aws3d.spot;aspect=fixed;fillColor=#00CCCC;fontSize=40;" vertex="1" parent="1">
          <mxGeometry x="1791.36" y="1487.52" width="235.88" height="136.96" as="geometry" />
        </mxCell>
        <mxCell id="Wtf6WgaonPSGz3_DOAq4-90" value="" style="verticalLabelPosition=bottom;html=1;verticalAlign=top;strokeWidth=1;align=center;outlineConnect=0;dashed=0;outlineConnect=0;shape=mxgraph.aws3d.spot;aspect=fixed;fillColor=#00CCCC;fontSize=40;" vertex="1" parent="1">
          <mxGeometry x="2056.12" y="1644.29" width="235.88" height="136.96" as="geometry" />
        </mxCell>
        <mxCell id="d5ac148becb70bc-8" value="" style="verticalLabelPosition=bottom;html=1;verticalAlign=top;strokeWidth=1;dashed=0;shape=mxgraph.aws3d.dashedArrowlessEdge;aspect=fixed;rounded=1;shadow=0;comic=0;fontFamily=Verdana;fontSize=12" parent="1" vertex="1">
          <mxGeometry x="860" y="1556.72" width="1432" height="816" as="geometry" />
        </mxCell>
        <mxCell id="d5ac148becb70bc-9" value="" style="verticalLabelPosition=bottom;html=1;verticalAlign=top;strokeWidth=1;dashed=0;shape=mxgraph.aws3d.dashedArrowlessEdge;aspect=fixed;rounded=1;shadow=0;comic=0;fontFamily=Verdana;fontSize=12" parent="1" vertex="1">
          <mxGeometry x="610" y="1710" width="1432" height="816" as="geometry" />
        </mxCell>
        <mxCell id="d5ac148becb70bc-10" value="" style="verticalLabelPosition=bottom;html=1;verticalAlign=top;strokeWidth=1;dashed=0;shape=mxgraph.aws3d.dashedArrowlessEdge;fillColor=#000000;aspect=fixed;rounded=1;shadow=0;comic=0;fontFamily=Verdana;fontSize=12;fontColor=#000000;flipV=1;" parent="1" vertex="1">
          <mxGeometry x="610" y="1560" width="230.41" height="131" as="geometry" />
        </mxCell>
        <mxCell id="1a8abee3a6cfdf20-2" value="" style="verticalLabelPosition=bottom;html=1;verticalAlign=top;strokeWidth=1;dashed=0;shape=mxgraph.aws3d.secureConnection;fillColor=#000000;strokeColor=#ffffff;aspect=fixed;rounded=1;shadow=0;comic=0;fontSize=12" parent="1" vertex="1">
          <mxGeometry x="799" y="2212" width="65.38" height="39" as="geometry" />
        </mxCell>
        <mxCell id="Wtf6WgaonPSGz3_DOAq4-4" value="" style="verticalLabelPosition=bottom;html=1;verticalAlign=top;strokeWidth=1;align=center;outlineConnect=0;dashed=0;outlineConnect=0;shape=mxgraph.aws3d.end_user;strokeColor=none;fillColor=#777777;aspect=fixed;" vertex="1" parent="1">
          <mxGeometry x="570" y="2245" width="107.31" height="220" as="geometry" />
        </mxCell>
        <mxCell id="Wtf6WgaonPSGz3_DOAq4-25" value="" style="verticalLabelPosition=bottom;html=1;verticalAlign=top;strokeWidth=1;align=center;outlineConnect=0;dashed=0;outlineConnect=0;shape=mxgraph.aws3d.flatDoubleEdge;fillColor=#000000;aspect=fixed;" vertex="1" parent="1">
          <mxGeometry x="620" y="1980" width="632.98" height="360.56" as="geometry" />
        </mxCell>
        <mxCell id="Wtf6WgaonPSGz3_DOAq4-27" value="" style="verticalLabelPosition=bottom;html=1;verticalAlign=top;strokeWidth=1;align=center;outlineConnect=0;dashed=0;outlineConnect=0;shape=mxgraph.aws3d.vpcGateway;fillColor=#97D077;strokeColor=#5E5E5E;aspect=fixed;" vertex="1" parent="1">
          <mxGeometry x="870" y="2083" width="183.9" height="162" as="geometry" />
        </mxCell>
        <mxCell id="Wtf6WgaonPSGz3_DOAq4-32" value="" style="verticalLabelPosition=bottom;html=1;verticalAlign=top;strokeWidth=1;align=center;outlineConnect=0;dashed=0;outlineConnect=0;shape=mxgraph.aws3d.arrowNE;fillColor=#000000;aspect=fixed;fontSize=40;" vertex="1" parent="1">
          <mxGeometry x="660.75" y="2205" width="280" height="160" as="geometry" />
        </mxCell>
        <mxCell id="Wtf6WgaonPSGz3_DOAq4-36" value="" style="verticalLabelPosition=bottom;html=1;verticalAlign=top;strokeWidth=1;align=center;outlineConnect=0;dashed=0;outlineConnect=0;shape=mxgraph.aws3d.arrowNE;fillColor=#000000;aspect=fixed;fontSize=40;" vertex="1" parent="1">
          <mxGeometry x="1050" y="2050" width="160" height="91.43" as="geometry" />
        </mxCell>
        <mxCell id="Wtf6WgaonPSGz3_DOAq4-38" value="" style="verticalLabelPosition=bottom;html=1;verticalAlign=top;strokeWidth=1;dashed=0;shape=mxgraph.aws3d.dashedArrowlessEdge;fillColor=#000000;aspect=fixed;rounded=1;shadow=0;comic=0;fontFamily=Verdana;fontSize=12;fontColor=#000000;flipV=1;" vertex="1" parent="1">
          <mxGeometry x="2041.17" y="2380" width="248" height="141" as="geometry" />
        </mxCell>
        <mxCell id="Wtf6WgaonPSGz3_DOAq4-40" value="" style="verticalLabelPosition=bottom;html=1;verticalAlign=top;strokeWidth=1;align=center;outlineConnect=0;dashed=0;outlineConnect=0;shape=mxgraph.aws3d.application2;fillColor=#00CCCC;strokeColor=#9AC7BF;aspect=fixed;fontSize=40;" vertex="1" parent="1">
          <mxGeometry x="1400" y="1970" width="245" height="209.44" as="geometry" />
        </mxCell>
        <mxCell id="Wtf6WgaonPSGz3_DOAq4-42" value="" style="verticalLabelPosition=bottom;html=1;verticalAlign=top;strokeWidth=1;align=center;outlineConnect=0;dashed=0;outlineConnect=0;shape=mxgraph.aws3d.application;fillColor=#4286c5;strokeColor=#57A2D8;aspect=fixed;fontSize=40;" vertex="1" parent="1">
          <mxGeometry x="1760" y="2130" width="234.3" height="260" as="geometry" />
        </mxCell>
        <mxCell id="Wtf6WgaonPSGz3_DOAq4-161" value="" style="edgeStyle=orthogonalEdgeStyle;rounded=0;orthogonalLoop=1;jettySize=auto;html=1;startArrow=none;startFill=0;endArrow=classic;endFill=1;fontSize=50;fontColor=#000000;" edge="1" parent="1" source="Wtf6WgaonPSGz3_DOAq4-45" target="Wtf6WgaonPSGz3_DOAq4-152">
          <mxGeometry relative="1" as="geometry" />
        </mxCell>
        <mxCell id="Wtf6WgaonPSGz3_DOAq4-45" value="" style="verticalLabelPosition=bottom;html=1;verticalAlign=top;strokeWidth=1;align=center;outlineConnect=0;dashed=0;outlineConnect=0;shape=mxgraph.aws3d.rdsMaster;fillColor=#7EA6E0;strokeColor=#5E5E5E;aspect=fixed;fontSize=40;" vertex="1" parent="1">
          <mxGeometry x="1824.3" y="1417.1799999999998" width="170" height="183.82" as="geometry" />
        </mxCell>
        <mxCell id="Wtf6WgaonPSGz3_DOAq4-46" value="" style="verticalLabelPosition=bottom;html=1;verticalAlign=top;strokeWidth=1;align=center;outlineConnect=0;dashed=0;outlineConnect=0;shape=mxgraph.aws3d.rdsMaster;fillColor=#FFFFFF;strokeColor=#5E5E5E;aspect=fixed;fontSize=40;" vertex="1" parent="1">
          <mxGeometry x="1333.53" y="1450" width="166.47" height="180" as="geometry" />
        </mxCell>
        <mxCell id="Wtf6WgaonPSGz3_DOAq4-47" value="" style="verticalLabelPosition=bottom;html=1;verticalAlign=top;strokeWidth=1;align=center;outlineConnect=0;dashed=0;outlineConnect=0;shape=mxgraph.aws3d.rdsSlave;fillColor=#A680B8;strokeColor=#5E5E5E;aspect=fixed;fontSize=40;" vertex="1" parent="1">
          <mxGeometry x="2086.2" y="1580" width="175.71" height="190" as="geometry" />
        </mxCell>
        <mxCell id="Wtf6WgaonPSGz3_DOAq4-49" value="" style="verticalLabelPosition=bottom;html=1;verticalAlign=top;strokeWidth=1;align=center;outlineConnect=0;dashed=0;outlineConnect=0;shape=mxgraph.aws3d.s3;fillColor=#FFD966;strokeColor=#FFFFFF;aspect=fixed;fontSize=40;" vertex="1" parent="1">
          <mxGeometry x="2041.17" y="1870" width="232.47" height="240" as="geometry" />
        </mxCell>
        <mxCell id="Wtf6WgaonPSGz3_DOAq4-59" value="" style="verticalLabelPosition=bottom;html=1;verticalAlign=top;strokeWidth=1;align=center;outlineConnect=0;dashed=0;outlineConnect=0;shape=mxgraph.aws3d.elasticLoadBalancing;fillColor=#FFF4C3;strokeColor=#5E5E5E;aspect=fixed;fontSize=40;" vertex="1" parent="1">
          <mxGeometry x="1542.19" y="1580" width="187.81" height="180" as="geometry" />
        </mxCell>
        <mxCell id="Wtf6WgaonPSGz3_DOAq4-60" value="" style="verticalLabelPosition=bottom;html=1;verticalAlign=top;strokeWidth=1;align=center;outlineConnect=0;dashed=0;outlineConnect=0;shape=mxgraph.aws3d.lambda;fillColor=#FFB570;strokeColor=#5E5E5E;aspect=fixed;fontSize=40;" vertex="1" parent="1">
          <mxGeometry x="1860" y="1749" width="159.62" height="190" as="geometry" />
        </mxCell>
        <mxCell id="Wtf6WgaonPSGz3_DOAq4-63" value="" style="verticalLabelPosition=bottom;html=1;verticalAlign=top;strokeWidth=1;align=center;outlineConnect=0;dashed=0;outlineConnect=0;shape=mxgraph.aws3d.rds;fillColor=#67AB9F;strokeColor=#5E5E5E;aspect=fixed;fontSize=40;" vertex="1" parent="1">
          <mxGeometry x="1580" y="1290" width="157.22" height="170" as="geometry" />
        </mxCell>
        <mxCell id="Wtf6WgaonPSGz3_DOAq4-64" value="" style="verticalLabelPosition=bottom;html=1;verticalAlign=top;strokeWidth=1;align=center;outlineConnect=0;dashed=0;outlineConnect=0;shape=mxgraph.aws3d.ami2;aspect=fixed;fillColor=#FFD966;strokeColor=#333333;fontFamily=Helvetica;fontSize=40;fontColor=#000000;" vertex="1" parent="1">
          <mxGeometry x="1105" y="1800" width="245" height="209.44" as="geometry" />
        </mxCell>
        <mxCell id="Wtf6WgaonPSGz3_DOAq4-65" value="" style="verticalLabelPosition=bottom;html=1;verticalAlign=top;strokeWidth=1;dashed=0;shape=mxgraph.aws3d.secureConnection;fillColor=#000000;strokeColor=#ffffff;aspect=fixed;rounded=1;shadow=0;comic=0;fontSize=12" vertex="1" parent="1">
          <mxGeometry x="1429" y="2582" width="65.38" height="39" as="geometry" />
        </mxCell>
        <mxCell id="Wtf6WgaonPSGz3_DOAq4-67" value="" style="verticalLabelPosition=bottom;html=1;verticalAlign=top;strokeWidth=1;align=center;outlineConnect=0;dashed=0;outlineConnect=0;shape=mxgraph.aws3d.flatDoubleEdge;fillColor=#000000;aspect=fixed;" vertex="1" parent="1">
          <mxGeometry x="1330" y="2395.5699999999997" width="464.22" height="264.43" as="geometry" />
        </mxCell>
        <mxCell id="Wtf6WgaonPSGz3_DOAq4-68" value="" style="verticalLabelPosition=bottom;html=1;verticalAlign=top;strokeWidth=1;align=center;outlineConnect=0;dashed=0;outlineConnect=0;shape=mxgraph.aws3d.vpcGateway;fillColor=#97D077;strokeColor=#5E5E5E;aspect=fixed;" vertex="1" parent="1">
          <mxGeometry x="1500" y="2453" width="183.9" height="162" as="geometry" />
        </mxCell>
        <mxCell id="Wtf6WgaonPSGz3_DOAq4-69" value="" style="verticalLabelPosition=bottom;html=1;verticalAlign=top;strokeWidth=1;align=center;outlineConnect=0;dashed=0;outlineConnect=0;shape=mxgraph.aws3d.arrowNE;fillColor=#000000;aspect=fixed;fontSize=40;" vertex="1" parent="1">
          <mxGeometry x="1290.75" y="2575" width="280" height="160" as="geometry" />
        </mxCell>
        <mxCell id="Wtf6WgaonPSGz3_DOAq4-70" value="" style="verticalLabelPosition=bottom;html=1;verticalAlign=top;strokeWidth=1;align=center;outlineConnect=0;dashed=0;outlineConnect=0;shape=mxgraph.aws3d.arrowNE;fillColor=#000000;aspect=fixed;fontSize=40;" vertex="1" parent="1">
          <mxGeometry x="1680" y="2420" width="160" height="91.43" as="geometry" />
        </mxCell>
        <mxCell id="Wtf6WgaonPSGz3_DOAq4-71" value="" style="verticalLabelPosition=bottom;html=1;verticalAlign=top;strokeWidth=1;align=center;outlineConnect=0;dashed=0;outlineConnect=0;shape=mxgraph.aws3d.mobile_worker;aspect=fixed;strokeColor=none;fillColor=#777777;fontSize=40;" vertex="1" parent="1">
          <mxGeometry x="1160" y="2610" width="90" height="225" as="geometry" />
        </mxCell>
        <mxCell id="Wtf6WgaonPSGz3_DOAq4-72" value="" style="verticalLabelPosition=bottom;html=1;verticalAlign=top;strokeWidth=1;align=center;outlineConnect=0;dashed=0;outlineConnect=0;shape=mxgraph.aws3d.ami;aspect=fixed;fillColor=#E8CA45;strokeColor=#FFF215;fontSize=40;" vertex="1" parent="1">
          <mxGeometry x="813.83" y="1670" width="245.33" height="160" as="geometry" />
        </mxCell>
        <mxCell id="Wtf6WgaonPSGz3_DOAq4-83" value="" style="verticalLabelPosition=bottom;html=1;verticalAlign=top;strokeWidth=1;align=center;outlineConnect=0;dashed=0;outlineConnect=0;shape=mxgraph.aws3d.flatEdge;fillColor=#000000;aspect=fixed;fontSize=40;" vertex="1" parent="1">
          <mxGeometry x="2137.49" y="2172" width="207.16" height="118" as="geometry" />
        </mxCell>
        <mxCell id="Wtf6WgaonPSGz3_DOAq4-84" value="" style="verticalLabelPosition=bottom;html=1;verticalAlign=top;strokeWidth=1;align=center;outlineConnect=0;dashed=0;outlineConnect=0;shape=mxgraph.aws3d.flatEdge;fillColor=#000000;aspect=fixed;fontSize=40;" vertex="1" parent="1">
          <mxGeometry x="1005.47" y="1540" width="204.53" height="116.5" as="geometry" />
        </mxCell>
        <mxCell id="Wtf6WgaonPSGz3_DOAq4-85" value="" style="verticalLabelPosition=bottom;html=1;verticalAlign=top;strokeWidth=1;dashed=0;shape=mxgraph.aws3d.dashedArrowlessEdge;aspect=fixed;rounded=1;shadow=0;comic=0;fontFamily=Verdana;fontSize=12" vertex="1" parent="1">
          <mxGeometry x="1452.47" y="1132" width="1488.16" height="848" as="geometry" />
        </mxCell>
        <mxCell id="Wtf6WgaonPSGz3_DOAq4-86" value="" style="verticalLabelPosition=bottom;html=1;verticalAlign=top;strokeWidth=1;dashed=0;shape=mxgraph.aws3d.dashedArrowlessEdge;aspect=fixed;rounded=1;shadow=0;comic=0;fontFamily=Verdana;fontSize=12" vertex="1" parent="1">
          <mxGeometry x="910" y="1460" width="1474.12" height="840" as="geometry" />
        </mxCell>
        <mxCell id="Wtf6WgaonPSGz3_DOAq4-87" value="" style="verticalLabelPosition=bottom;html=1;verticalAlign=top;strokeWidth=1;dashed=0;shape=mxgraph.aws3d.dashedArrowlessEdge;fillColor=#000000;aspect=fixed;rounded=1;shadow=0;comic=0;fontFamily=Verdana;fontSize=12;fontColor=#000000;flipV=1;" vertex="1" parent="1">
          <mxGeometry x="900" y="1130" width="562.83" height="320" as="geometry" />
        </mxCell>
        <mxCell id="Wtf6WgaonPSGz3_DOAq4-88" value="" style="verticalLabelPosition=bottom;html=1;verticalAlign=top;strokeWidth=1;dashed=0;shape=mxgraph.aws3d.dashedArrowlessEdge;fillColor=#000000;aspect=fixed;rounded=1;shadow=0;comic=0;fontFamily=Verdana;fontSize=12;fontColor=#000000;flipV=1;" vertex="1" parent="1">
          <mxGeometry x="2360" y="1980" width="563.82" height="320.56" as="geometry" />
        </mxCell>
        <mxCell id="Wtf6WgaonPSGz3_DOAq4-95" value="" style="verticalLabelPosition=bottom;html=1;verticalAlign=top;strokeWidth=1;align=center;outlineConnect=0;dashed=0;outlineConnect=0;shape=mxgraph.aws3d.arrowNE;fillColor=#000000;aspect=fixed;fontSize=40;" vertex="1" parent="1">
          <mxGeometry x="2520" y="1644.29" width="150" height="85.71" as="geometry" />
        </mxCell>
        <mxCell id="Wtf6WgaonPSGz3_DOAq4-107" value="DMZ区" style="text;html=1;strokeColor=none;fillColor=none;align=center;verticalAlign=middle;whiteSpace=wrap;rounded=0;fontSize=50;rotation=-30;" vertex="1" parent="1">
          <mxGeometry x="1985.3600000000001" y="2406" width="225" height="59" as="geometry" />
        </mxCell>
        <mxCell id="Wtf6WgaonPSGz3_DOAq4-112" value="内网-中台应用区" style="text;html=1;strokeColor=none;fillColor=none;align=center;verticalAlign=middle;whiteSpace=wrap;rounded=0;fontSize=50;rotation=-30;" vertex="1" parent="1">
          <mxGeometry x="2360" y="2090" width="420" height="59" as="geometry" />
        </mxCell>
        <mxCell id="Wtf6WgaonPSGz3_DOAq4-123" value="" style="verticalLabelPosition=bottom;html=1;verticalAlign=top;strokeWidth=1;align=center;outlineConnect=0;dashed=0;outlineConnect=0;shape=mxgraph.aws3d.arrowNE;fillColor=#000000;aspect=fixed;fontSize=40;" vertex="1" parent="1">
          <mxGeometry x="2220" y="1454.29" width="150" height="85.71" as="geometry" />
        </mxCell>
        <mxCell id="Wtf6WgaonPSGz3_DOAq4-128" value="" style="verticalLabelPosition=bottom;html=1;verticalAlign=top;strokeWidth=1;align=center;outlineConnect=0;dashed=0;outlineConnect=0;shape=mxgraph.aws3d.arrowNE;fillColor=#000000;aspect=fixed;fontSize=40;" vertex="1" parent="1">
          <mxGeometry x="1710" y="1170" width="150" height="85.71" as="geometry" />
        </mxCell>
        <mxCell id="Wtf6WgaonPSGz3_DOAq4-134" value="防火墙" style="text;html=1;strokeColor=none;fillColor=none;align=center;verticalAlign=middle;whiteSpace=wrap;rounded=0;fontSize=50;rotation=-30;" vertex="1" parent="1">
          <mxGeometry x="1710" y="2634" width="225" height="59" as="geometry" />
        </mxCell>
        <mxCell id="Wtf6WgaonPSGz3_DOAq4-136" value="F5" style="text;html=1;strokeColor=none;fillColor=none;align=center;verticalAlign=middle;whiteSpace=wrap;rounded=0;fontSize=50;rotation=30;" vertex="1" parent="1">
          <mxGeometry x="1345.75" y="2436.2200000000003" width="225" height="59" as="geometry" />
        </mxCell>
        <mxCell id="Wtf6WgaonPSGz3_DOAq4-137" value="F5" style="text;html=1;strokeColor=none;fillColor=none;align=center;verticalAlign=middle;whiteSpace=wrap;rounded=0;fontSize=50;rotation=30;" vertex="1" parent="1">
          <mxGeometry x="710.0000000000001" y="2071" width="225" height="59" as="geometry" />
        </mxCell>
        <mxCell id="Wtf6WgaonPSGz3_DOAq4-138" value="渠道应用" style="text;html=1;strokeColor=none;fillColor=none;align=center;verticalAlign=middle;whiteSpace=wrap;rounded=0;fontSize=50;rotation=-30;" vertex="1" parent="1">
          <mxGeometry x="1340" y="2693" width="225" height="59" as="geometry" />
        </mxCell>
        <mxCell id="Wtf6WgaonPSGz3_DOAq4-139" value="用户" style="text;html=1;strokeColor=none;fillColor=none;align=center;verticalAlign=middle;whiteSpace=wrap;rounded=0;fontSize=50;rotation=-30;" vertex="1" parent="1">
          <mxGeometry x="710" y="2331" width="225" height="59" as="geometry" />
        </mxCell>
        <mxCell id="Wtf6WgaonPSGz3_DOAq4-141" value="产品中心" style="text;html=1;strokeColor=none;fillColor=none;align=center;verticalAlign=middle;whiteSpace=wrap;rounded=0;fontSize=50;rotation=-30;fontColor=#000000;" vertex="1" parent="1">
          <mxGeometry x="2170" y="2071" width="225" height="59" as="geometry" />
        </mxCell>
        <mxCell id="Wtf6WgaonPSGz3_DOAq4-148" value="额度中心" style="text;html=1;strokeColor=none;fillColor=none;align=center;verticalAlign=middle;whiteSpace=wrap;rounded=0;fontSize=50;rotation=30;" vertex="1" parent="1">
          <mxGeometry x="1660" y="1920" width="420" height="59" as="geometry" />
        </mxCell>
        <mxCell id="Wtf6WgaonPSGz3_DOAq4-149" value="流程中心" style="text;html=1;strokeColor=none;fillColor=none;align=center;verticalAlign=middle;whiteSpace=wrap;rounded=0;fontSize=50;rotation=30;" vertex="1" parent="1">
          <mxGeometry x="1356.49" y="1751" width="420" height="59" as="geometry" />
        </mxCell>
        <mxCell id="Wtf6WgaonPSGz3_DOAq4-150" value="合同中心" style="text;html=1;strokeColor=none;fillColor=none;align=center;verticalAlign=middle;whiteSpace=wrap;rounded=0;fontSize=50;rotation=30;" vertex="1" parent="1">
          <mxGeometry x="1610" y="1580" width="420" height="59" as="geometry" />
        </mxCell>
        <mxCell id="Wtf6WgaonPSGz3_DOAq4-151" value="费用中心" style="text;html=1;strokeColor=none;fillColor=none;align=center;verticalAlign=middle;whiteSpace=wrap;rounded=0;fontSize=50;rotation=-30;" vertex="1" parent="1">
          <mxGeometry x="2344.65" y="1911" width="420" height="59" as="geometry" />
        </mxCell>
        <mxCell id="Wtf6WgaonPSGz3_DOAq4-152" value="放款中心" style="text;html=1;strokeColor=none;fillColor=none;align=center;verticalAlign=middle;whiteSpace=wrap;rounded=0;fontSize=50;rotation=30;" vertex="1" parent="1">
          <mxGeometry x="1889.9999999999998" y="1751" width="420" height="59" as="geometry" />
        </mxCell>
        <mxCell id="Wtf6WgaonPSGz3_DOAq4-153" value="贷后中心" style="text;html=1;strokeColor=none;fillColor=none;align=center;verticalAlign=middle;whiteSpace=wrap;rounded=0;fontSize=50;rotation=30;" vertex="1" parent="1">
          <mxGeometry x="1366" y="1428.52" width="420" height="59" as="geometry" />
        </mxCell>
        <mxCell id="Wtf6WgaonPSGz3_DOAq4-154" value="押品中心" style="text;html=1;strokeColor=none;fillColor=none;align=center;verticalAlign=middle;whiteSpace=wrap;rounded=0;fontSize=50;rotation=30;" vertex="1" parent="1">
          <mxGeometry x="1116" y="1601" width="420" height="59" as="geometry" />
        </mxCell>
        <mxCell id="Wtf6WgaonPSGz3_DOAq4-159" value="" style="verticalLabelPosition=bottom;html=1;verticalAlign=top;strokeWidth=1;align=center;outlineConnect=0;dashed=0;outlineConnect=0;shape=mxgraph.aws3d.redshift;fillColor=#ECECEC;strokeColor=#5E5E5E;aspect=fixed;fontSize=50;fontColor=#000000;rotation=0;" vertex="1" parent="1">
          <mxGeometry x="2350" y="1740" width="150" height="190" as="geometry" />
        </mxCell>
        <mxCell id="Wtf6WgaonPSGz3_DOAq4-162" value="API网关" style="text;html=1;strokeColor=none;fillColor=none;align=center;verticalAlign=middle;whiteSpace=wrap;rounded=0;fontSize=50;rotation=-30;fontColor=#000000;" vertex="1" parent="1">
          <mxGeometry x="1250" y="1369.52" width="225" height="59" as="geometry" />
        </mxCell>
        <mxCell id="Wtf6WgaonPSGz3_DOAq4-75" value="" style="verticalLabelPosition=bottom;html=1;verticalAlign=top;strokeWidth=1;align=center;outlineConnect=0;dashed=0;outlineConnect=0;shape=mxgraph.aws3d.customerGateway;fillColor=#97D077;strokeColor=#5E5E5E;aspect=fixed;fontSize=40;" vertex="1" parent="1">
          <mxGeometry x="1176.0700000000002" y="1205.72" width="252.93" height="222.8" as="geometry" />
        </mxCell>
        <mxCell id="Wtf6WgaonPSGz3_DOAq4-164" value="" style="verticalLabelPosition=bottom;html=1;verticalAlign=top;strokeWidth=1;dashed=0;shape=mxgraph.aws3d.dashedArrowlessEdge;aspect=fixed;rounded=1;shadow=0;comic=0;fontFamily=Verdana;fontSize=12" vertex="1" parent="1">
          <mxGeometry x="1600" y="990" width="1544.32" height="880" as="geometry" />
        </mxCell>
        <mxCell id="Wtf6WgaonPSGz3_DOAq4-166" value="" style="verticalLabelPosition=bottom;html=1;verticalAlign=top;strokeWidth=1;dashed=0;shape=mxgraph.aws3d.dashedArrowlessEdge;aspect=fixed;rounded=1;shadow=0;comic=0;fontFamily=Verdana;fontSize=12" vertex="1" parent="1">
          <mxGeometry x="2145.66" y="660" width="1526.77" height="870" as="geometry" />
        </mxCell>
        <mxCell id="Wtf6WgaonPSGz3_DOAq4-167" value="" style="verticalLabelPosition=bottom;html=1;verticalAlign=top;strokeWidth=1;dashed=0;shape=mxgraph.aws3d.dashedArrowlessEdge;fillColor=#000000;aspect=fixed;rounded=1;shadow=0;comic=0;fontFamily=Verdana;fontSize=12;fontColor=#000000;flipV=1;" vertex="1" parent="1">
          <mxGeometry x="3130" y="1530" width="585.61" height="332.94" as="geometry" />
        </mxCell>
        <mxCell id="Wtf6WgaonPSGz3_DOAq4-168" value="" style="verticalLabelPosition=bottom;html=1;verticalAlign=top;strokeWidth=1;dashed=0;shape=mxgraph.aws3d.dashedArrowlessEdge;fillColor=#000000;aspect=fixed;rounded=1;shadow=0;comic=0;fontFamily=Verdana;fontSize=12;fontColor=#000000;flipV=1;" vertex="1" parent="1">
          <mxGeometry x="1600" y="660" width="563.82" height="320.56" as="geometry" />
        </mxCell>
        <mxCell id="Wtf6WgaonPSGz3_DOAq4-170" value="" style="shape=image;verticalLabelPosition=bottom;labelBackgroundColor=#ffffff;verticalAlign=top;aspect=fixed;imageAspect=0;image=data:image/svg+xml,PHN2ZyB4bWxuczpkYz0iaHR0cDovL3B1cmwub3JnL2RjL2VsZW1lbnRzLzEuMS8iIHhtbG5zOmNjPSJodHRwOi8vY3JlYXRpdmVjb21tb25zLm9yZy9ucyMiIHhtbG5zOnJkZj0iaHR0cDovL3d3dy53My5vcmcvMTk5OS8wMi8yMi1yZGYtc3ludGF4LW5zIyIgeG1sbnM6c3ZnPSJodHRwOi8vd3d3LnczLm9yZy8yMDAwL3N2ZyIgeG1sbnM9Imh0dHA6Ly93d3cudzMub3JnLzIwMDAvc3ZnIiB4bWxuczpzb2RpcG9kaT0iaHR0cDovL3NvZGlwb2RpLnNvdXJjZWZvcmdlLm5ldC9EVEQvc29kaXBvZGktMC5kdGQiIHhtbG5zOmlua3NjYXBlPSJodHRwOi8vd3d3Lmlua3NjYXBlLm9yZy9uYW1lc3BhY2VzL2lua3NjYXBlIiB2ZXJzaW9uPSIxLjEiIGlkPSJzdmcxMDE2NTMiIGlua3NjYXBlOnZlcnNpb249IjAuOTIuMyAoMjQwNTU0NiwgMjAxOC0wMy0xMSkiIHNvZGlwb2RpOmRvY25hbWU9Im15c3FsLnN2ZyIgeD0iMHB4IiB5PSIwcHgiIHZpZXdCb3g9IjAgMCA0Ni4wMyA2MC41NyIgeG1sOnNwYWNlPSJwcmVzZXJ2ZSIgd2lkdGg9IjQ2LjAyOTk5OSIgaGVpZ2h0PSI2MC41NyI+PG1ldGFkYXRhIGlkPSJtZXRhZGF0YTkxNCI+PHJkZjpSREY+PGNjOldvcmsgcmRmOmFib3V0PSIiPjxkYzpmb3JtYXQ+aW1hZ2Uvc3ZnK3htbDwvZGM6Zm9ybWF0PjxkYzp0eXBlIHJkZjpyZXNvdXJjZT0iaHR0cDovL3B1cmwub3JnL2RjL2RjbWl0eXBlL1N0aWxsSW1hZ2UiLz48ZGM6dGl0bGUvPjwvY2M6V29yaz48L3JkZjpSREY+PC9tZXRhZGF0YT48ZGVmcyBpZD0iZGVmczkxMiI+JiN4YTsJJiN4YTsmI3hhOwkmI3hhOyYjeGE7CSYjeGE7JiN4YTsJJiN4YTsmI3hhOwkmI3hhOyYjeGE7CSYjeGE7JiN4YTsJJiN4YTsmI3hhOwkmI3hhOyYjeGE7CQkmI3hhOwkmI3hhOwkJJiN4YTsJJiN4YTsJCSYjeGE7CSYjeGE7CQkmI3hhOwkmI3hhOwkJJiN4YTsJJiN4YTsJCSYjeGE7CSYjeGE7CQkmI3hhOwkmI3hhOwkJJiN4YTsJPC9kZWZzPiYjeGE7PGZpbHRlciBpZD0iZmlsdGVyXzIiPiYjeGE7CTxmZUdhdXNzaWFuQmx1ciBpZD0iZmVHYXVzc2lhbkJsdXIxMDE1NzgiIHN0ZERldmlhdGlvbj0iMiIvPiYjeGE7PC9maWx0ZXI+JiN4YTs8c29kaXBvZGk6bmFtZWR2aWV3IGJvcmRlcmNvbG9yPSIjNjY2NjY2IiBib3JkZXJvcGFjaXR5PSIxIiBmaXQtbWFyZ2luLWJvdHRvbT0iMCIgZml0LW1hcmdpbi1sZWZ0PSIwIiBmaXQtbWFyZ2luLXJpZ2h0PSIwIiBmaXQtbWFyZ2luLXRvcD0iMCIgZ3JpZHRvbGVyYW5jZT0iMTAiIGd1aWRldG9sZXJhbmNlPSIxMCIgaWQ9Im5hbWVkdmlldzEwMTY1NSIgaW5rc2NhcGU6Y3VycmVudC1sYXllcj0ic3ZnMTAxNjUzIiBpbmtzY2FwZTpjeD0iLTU5LjUzMDI0NyIgaW5rc2NhcGU6Y3k9IjMzLjIxNTIxIiBpbmtzY2FwZTpwYWdlb3BhY2l0eT0iMCIgaW5rc2NhcGU6cGFnZXNoYWRvdz0iMiIgaW5rc2NhcGU6d2luZG93LWhlaWdodD0iMTAxNyIgaW5rc2NhcGU6d2luZG93LW1heGltaXplZD0iMSIgaW5rc2NhcGU6d2luZG93LXdpZHRoPSIxOTIwIiBpbmtzY2FwZTp3aW5kb3cteD0iLTgiIGlua3NjYXBlOndpbmRvdy15PSItOCIgaW5rc2NhcGU6em9vbT0iNC44ODM3NzkiIG9iamVjdHRvbGVyYW5jZT0iMTAiIHBhZ2Vjb2xvcj0iI2ZmZmZmZiIgc2hvd2dyaWQ9ImZhbHNlIj4mI3hhOwk8L3NvZGlwb2RpOm5hbWVkdmlldz4mI3hhOyYjeGE7PHBhdGggaWQ9InBhdGgxMDE1OTEiIGlua3NjYXBlOmNvbm5lY3Rvci1jdXJ2YXR1cmU9IjAiIHN0eWxlPSJmaWxsOiMwMDcyYzYiIGQ9Ik0gMCw4LjI4IFYgNTIuMyBjIDAsNC41NyAxMC4zMSw4LjI3IDIzLjAyLDguMjcgViA4LjI4IFoiLz4mI3hhOyYjeGE7PHBhdGggaWQ9InBhdGgxMDE1OTkiIGlua3NjYXBlOmNvbm5lY3Rvci1jdXJ2YXR1cmU9IjAiIHN0eWxlPSJmaWxsOiMwMDcyYzYiIGQ9Im0gMjIuNyw2MC41NyBoIDAuMzEgYyAxMi43MiwwIDIzLjAyLC0zLjcgMjMuMDIsLTguMjcgViA4LjI4IEggMjIuNyBaIi8+JiN4YTsmI3hhOzxwYXRoIGlkPSJwYXRoMTAxNjA3IiBpbmtzY2FwZTpjb25uZWN0b3ItY3VydmF0dXJlPSIwIiBzdHlsZT0iZmlsbDojZmZmZmZmO2ZpbGwtb3BhY2l0eTowLjE1IiBkPSJtIDIyLjcsNjAuNTcgaCAwLjMxIGMgMTIuNzIsMCAyMy4wMiwtMy43IDIzLjAyLC04LjI3IFYgOC4yOCBIIDIyLjcgWiIvPiYjeGE7JiN4YTs8cGF0aCBpZD0icGF0aDEwMTYxNSIgaW5rc2NhcGU6Y29ubmVjdG9yLWN1cnZhdHVyZT0iMCIgc3R5bGU9ImZpbGw6I2ZmZmZmZiIgZD0ibSA0Ni4wMyw4LjI4IGMgMCw0LjU3IC0xMC4zLDguMjcgLTIzLjAxLDguMjcgQyAxMC4zMSwxNi41NSAwLDEyLjg1IDAsOC4yOCAwLDMuNzEgMTAuMzEsMCAyMy4wMiwwIDM1LjczLDAgNDYuMDMsMy43MSA0Ni4wMyw4LjI4IFoiLz4mI3hhOyYjeGE7PHBhdGggaWQ9InBhdGgxMDE2MjMiIGlua3NjYXBlOmNvbm5lY3Rvci1jdXJ2YXR1cmU9IjAiIHN0eWxlPSJmaWxsOiNkZDU5MDAiIGQ9Im0gNDEuMzMsNy44IGMgMCwzLjAyIC04LjIsNS40NiAtMTguMzEsNS40NiAtMTAuMTEsMCAtMTguMzEsLTIuNDQgLTE4LjMxLC01LjQ2IDAsLTMuMDEgOC4yLC01LjQ2IDE4LjMxLC01LjQ2IDEwLjEyLDAgMTguMzEsMi40NSAxOC4zMSw1LjQ2IHoiLz4mI3hhOyYjeGE7PHBhdGggaWQ9InBhdGgxMDE2MzEiIGlua3NjYXBlOmNvbm5lY3Rvci1jdXJ2YXR1cmU9IjAiIHN0eWxlPSJmaWxsOiNmZjhjMDAiIGQ9Im0gMzcuNSwxMS4xMyBjIDIuMzksLTAuOTIgMy44MywtMi4wOCAzLjgzLC0zLjMzIDAsLTMuMDIgLTguMiwtNS40NiAtMTguMzEsLTUuNDYgLTEwLjExLDAgLTE4LjMxLDIuNDQgLTE4LjMxLDUuNDYgMCwxLjI1IDEuNDQsMi40MSAzLjg0LDMuMzMgMy4zNCwtMS4yOSA4LjU3LC0yLjEyIDE0LjQ3LC0yLjEyIDUuOSwwIDExLjEyLDAuODMgMTQuNDgsMi4xMiB6Ii8+JiN4YTsmI3hhOzxwYXRoIGlkPSJwYXRoMTAxNjM5IiBpbmtzY2FwZTpjb25uZWN0b3ItY3VydmF0dXJlPSIwIiBzdHlsZT0iZmlsbDojZmZmZmZmIiBkPSJNIDQuNzgsNDAuNjggSCA3LjY5IFYgMjkuMTkgbCA0LjUxLDEwLjAyIGMgMC41MywxLjIxIDEuMjYsMS42NCAyLjY5LDEuNjQgMS40MiwwIDIuMTIsLTAuNDMgMi42NiwtMS42NCBsIDQuNSwtMTAuMDIgdiAxMS40OSBoIDIuOTEgViAyOS4yMSBjIDAsLTEuMTIgLTAuNDUsLTEuNjYgLTEuMzcsLTEuOTQgLTIuMjEsLTAuNjkgLTMuNjksLTAuMSAtNC4zNywxLjQgTCAxNC44LDM4LjU2IDEwLjUyLDI4LjY3IEMgOS44OCwyNy4xNyA4LjM2LDI2LjU4IDYuMTUsMjcuMjcgNS4yMywyNy41NSA0Ljc4LDI4LjA5IDQuNzgsMjkuMjEgWiIvPiYjeGE7JiN4YTs8cGF0aCBpZD0icGF0aDEwMTY0NyIgaW5rc2NhcGU6Y29ubmVjdG9yLWN1cnZhdHVyZT0iMCIgc3R5bGU9ImZpbGw6I2ZmZmZmZiIgZD0ibSAyNy4zOCwzMS4zMyBoIDIuOTEgdiA2LjMzIGMgLTAuMDMsMC4zNCAwLjExLDEuMTUgMS43LDEuMTggMC44MiwwLjAxIDYuMjgsMCA2LjM0LDAgdiAtNy41NSBoIDIuOTEgYyAwLjAyLDAgMCwxMC4yOSAwLDEwLjMzIDAuMDIsMi41NCAtMy4xNSwzLjA5IC00LjYsMy4xMyBoIC05LjIgdiAtMS45NiBjIDAuMDIsMCA5LjE5LDAuMDEgOS4yMSwwIDEuODgsLTAuMTkgMS42NSwtMS4xMyAxLjY1LC0xLjQ0IHYgLTAuNzYgaCAtNi4xOCBjIC0yLjg4LC0wLjAzIC00LjcyLC0xLjI5IC00Ljc0LC0yLjczIDAsLTAuMTQgMC4wNiwtNi40NyAwLC02LjUzIHoiLz4mI3hhOzwvc3ZnPg==;strokeColor=#FFFFFF;fillColor=#FFB570;fontSize=50;fontColor=#000000;" vertex="1" parent="1">
          <mxGeometry x="3190" y="1337.0900000000001" width="136" height="180.35" as="geometry" />
        </mxCell>
        <mxCell id="Wtf6WgaonPSGz3_DOAq4-171" value="" style="shape=image;verticalLabelPosition=bottom;labelBackgroundColor=#ffffff;verticalAlign=top;aspect=fixed;imageAspect=0;image=data:image/svg+xml,PHN2ZyB4bWxuczpjYz0iaHR0cDovL2NyZWF0aXZlY29tbW9ucy5vcmcvbnMjIiB4bWxuczpkYz0iaHR0cDovL3B1cmwub3JnL2RjL2VsZW1lbnRzLzEuMS8iIHhtbG5zOmlua3NjYXBlPSJodHRwOi8vd3d3Lmlua3NjYXBlLm9yZy9uYW1lc3BhY2VzL2lua3NjYXBlIiB4bWxuczpyZGY9Imh0dHA6Ly93d3cudzMub3JnLzE5OTkvMDIvMjItcmRmLXN5bnRheC1ucyMiIHhtbG5zOnNvZGlwb2RpPSJodHRwOi8vc29kaXBvZGkuc291cmNlZm9yZ2UubmV0L0RURC9zb2RpcG9kaS0wLmR0ZCIgeG1sbnM6c3ZnPSJodHRwOi8vd3d3LnczLm9yZy8yMDAwL3N2ZyIgeG1sbnM9Imh0dHA6Ly93d3cudzMub3JnLzIwMDAvc3ZnIiB4bWxuczp4bGluaz0iaHR0cDovL3d3dy53My5vcmcvMTk5OS94bGluayIgdmVyc2lvbj0iMS4xIiBpZD0ic3ZnMTAzNDc0IiBpbmtzY2FwZTp2ZXJzaW9uPSIwLjkyLjMgKDI0MDU1NDYsIDIwMTgtMDMtMTEpIiBzb2RpcG9kaTpkb2NuYW1lPSJyZWRpcy5zdmciIHg9IjBweCIgeT0iMHB4IiB2aWV3Qm94PSIwIDAgMzcuNTEgMzEuNiIgc3R5bGU9ImVuYWJsZS1iYWNrZ3JvdW5kOm5ldyAwIDAgMzcuNTEgMzEuNjsiIHhtbDpzcGFjZT0icHJlc2VydmUiPiYjeGE7PHNvZGlwb2RpOm5hbWVkdmlldyBib3JkZXJjb2xvcj0iIzY2NjY2NiIgYm9yZGVyb3BhY2l0eT0iMSIgZml0LW1hcmdpbi1ib3R0b209IjAiIGZpdC1tYXJnaW4tbGVmdD0iMCIgZml0LW1hcmdpbi1yaWdodD0iMCIgZml0LW1hcmdpbi10b3A9IjAiIGdyaWR0b2xlcmFuY2U9IjEwIiBndWlkZXRvbGVyYW5jZT0iMTAiIGlkPSJuYW1lZHZpZXcxMDM0NzYiIGlua3NjYXBlOmN1cnJlbnQtbGF5ZXI9InN2ZzEwMzQ3NCIgaW5rc2NhcGU6Y3g9IjI1LjAwNTA2MyIgaW5rc2NhcGU6Y3k9IjIxLjA2NDU5MiIgaW5rc2NhcGU6cGFnZW9wYWNpdHk9IjAiIGlua3NjYXBlOnBhZ2VzaGFkb3c9IjIiIGlua3NjYXBlOndpbmRvdy1oZWlnaHQ9IjEwMTciIGlua3NjYXBlOndpbmRvdy1tYXhpbWl6ZWQ9IjEiIGlua3NjYXBlOndpbmRvdy13aWR0aD0iMTkyMCIgaW5rc2NhcGU6d2luZG93LXg9Ii04IiBpbmtzY2FwZTp3aW5kb3cteT0iLTgiIGlua3NjYXBlOnpvb209IjE5LjY0MjUwNCIgb2JqZWN0dG9sZXJhbmNlPSIxMCIgcGFnZWNvbG9yPSIjZmZmZmZmIiBzaG93Z3JpZD0iZmFsc2UiPiYjeGE7CTwvc29kaXBvZGk6bmFtZWR2aWV3PiYjeGE7PGcgaWQ9ImcxMDM0NzIiIHRyYW5zZm9ybT0idHJhbnNsYXRlKC0wLjc0NjgyNzEsLTAuNzUxNjI1KSI+JiN4YTsJPHRpdGxlIGlkPSJ0aXRsZTEwMzM4OCI+UGFnZS0xPC90aXRsZT4mI3hhOwk8ZyBpZD0iZ3JvdXAzNzc2LTEiIHRyYW5zZm9ybT0idHJhbnNsYXRlKDAuNDA3MjksLTAuNjA5Mzc1KSI+JiN4YTsJCTx0aXRsZSBpZD0idGl0bGUxMDMzOTAiPlJlZGlzLjYzNjwvdGl0bGU+JiN4YTsJCTxnIGlkPSJncm91cDM3NzctMiI+JiN4YTsJCQk8dGl0bGUgaWQ9InRpdGxlMTAzMzkyIj5TaGVldC4zNzc3PC90aXRsZT4mI3hhOwkJCTxnIGlkPSJzaGFwZTM3NzgtMyIgdHJhbnNmb3JtPSJ0cmFuc2xhdGUoMC4yMzcpIj4mI3hhOwkJCQk8dGl0bGUgaWQ9InRpdGxlMTAzMzk0Ij5TaGVldC4zNzc4PC90aXRsZT4mI3hhOwkJCQk8cGF0aCBpZD0icGF0aDEwMzM5NiIgaW5rc2NhcGU6Y29ubmVjdG9yLWN1cnZhdHVyZT0iMCIgc3R5bGU9ImZpbGw6I0JBMTQxQTsiIGQ9Ik0wLjExLDI1LjE5Yy0wLjA2LDAuNCwwLjI4LDAuOCwxLjAyLDEuMTEgICAgICBsMTUuMjQsNi4yNGMxLjM3LDAuNTYsMy42LDAuNTYsNC45NywwbDE1LjI0LTYuMjRjMC43NC0wLjMxLDEuMDgtMC43MSwxLjAyLTEuMTF2LTMuNThjMC4wNSwwLjM5LTAuMjksMC43OS0xLjAyLDEuMDkgICAgICBsLTE1LjI0LDYuMjRjLTEuMzcsMC41Ni0zLjYsMC41Ni00Ljk3LDBMMS4xMywyMi43Yy0wLjgtMC4zMy0xLjEzLTAuNzgtMS0xLjJMMC4xMSwyNS4xOXoiLz4mI3hhOwkJCTwvZz4mI3hhOwkJCTxnIGlkPSJzaGFwZTM3NzktNSIgdHJhbnNmb3JtPSJ0cmFuc2xhdGUoMCwtMy42KSI+JiN4YTsJCQkJPHRpdGxlIGlkPSJ0aXRsZTEwMzM5OSI+U2hlZXQuMzc3OTwvdGl0bGU+JiN4YTsJCQkJPHBhdGggaWQ9InBhdGgxMDM0MDEiIGlua3NjYXBlOmNvbm5lY3Rvci1jdXJ2YXR1cmU9IjAiIHN0eWxlPSJmaWxsOiNCQTE0MUE7IiBkPSJNMzYuODEsMjQuMjZjMS4zOCwwLjU3LDEuMzgsMS40OCwwLDIuMDQgICAgICBsLTE1LjIzLDYuMjRjLTEuMzcsMC41Ni0zLjYsMC41Ni00Ljk3LDBMMS4zNywyNi4zQzAsMjUuNzQsMCwyNC44MywxLjM3LDI0LjI2bDE1LjI0LTYuMjRjMS4zNy0wLjU2LDMuNi0wLjU2LDQuOTcsMCAgICAgIEwzNi44MSwyNC4yNnoiLz4mI3hhOwkJCTwvZz4mI3hhOwkJPC9nPiYjeGE7CQk8ZyBpZD0iZ3JvdXAzNzgwLTciIHRyYW5zZm9ybT0idHJhbnNsYXRlKDAsLTYuMzE5NSkiPiYjeGE7CQkJPHRpdGxlIGlkPSJ0aXRsZTEwMzQwNSI+U2hlZXQuMzc4MDwvdGl0bGU+JiN4YTsJCQk8ZyBpZD0ic2hhcGUzNzgxLTgiIHRyYW5zZm9ybT0idHJhbnNsYXRlKDAuMjM3KSI+JiN4YTsJCQkJPHRpdGxlIGlkPSJ0aXRsZTEwMzQwNyI+U2hlZXQuMzc4MTwvdGl0bGU+JiN4YTsJCQkJPHBhdGggaWQ9InBhdGgxMDM0MDkiIGlua3NjYXBlOmNvbm5lY3Rvci1jdXJ2YXR1cmU9IjAiIHN0eWxlPSJmaWxsOiNCQTE0MUE7IiBkPSJNMC4xMSwyNS4xOWMtMC4wNiwwLjQsMC4yOCwwLjgsMS4wMiwxLjExICAgICAgbDE1LjI0LDYuMjRjMS4zNywwLjU2LDMuNiwwLjU2LDQuOTcsMGwxNS4yNC02LjI0YzAuNzQtMC4zMSwxLjA4LTAuNzEsMS4wMi0xLjExdi0zLjU4YzAuMDUsMC4zOS0wLjI5LDAuNzktMS4wMiwxLjA5ICAgICAgbC0xNS4yNCw2LjI0Yy0xLjM3LDAuNTYtMy42LDAuNTYtNC45NywwTDEuMTMsMjIuN2MtMC44LTAuMzMtMS4xMy0wLjc4LTEtMS4yTDAuMTEsMjUuMTl6Ii8+JiN4YTsJCQk8L2c+JiN4YTsJCQk8ZyBpZD0ic2hhcGUzNzgyLTEwIiB0cmFuc2Zvcm09InRyYW5zbGF0ZSgwLC0zLjYpIj4mI3hhOwkJCQk8dGl0bGUgaWQ9InRpdGxlMTAzNDEyIj5TaGVldC4zNzgyPC90aXRsZT4mI3hhOwkJCQk8cGF0aCBpZD0icGF0aDEwMzQxNCIgaW5rc2NhcGU6Y29ubmVjdG9yLWN1cnZhdHVyZT0iMCIgc3R5bGU9ImZpbGw6I0JBMTQxQTsiIGQ9Ik0zNi44MSwyNC4yNmMxLjM4LDAuNTcsMS4zOCwxLjQ4LDAsMi4wNCAgICAgIGwtMTUuMjMsNi4yNGMtMS4zNywwLjU2LTMuNiwwLjU2LTQuOTcsMEwxLjM3LDI2LjNDMCwyNS43NCwwLDI0LjgzLDEuMzcsMjQuMjZsMTUuMjQtNi4yNGMxLjM3LTAuNTYsMy42LTAuNTYsNC45NywwICAgICAgTDM2LjgxLDI0LjI2eiIvPiYjeGE7CQkJPC9nPiYjeGE7CQk8L2c+JiN4YTsJCTxnIGlkPSJncm91cDM3ODMtMTIiPiYjeGE7CQkJPHRpdGxlIGlkPSJ0aXRsZTEwMzQxOCI+U2hlZXQuMzc4MzwvdGl0bGU+JiN4YTsJCQk8ZyBpZD0ic2hhcGUzNzg0LTEzIiB0cmFuc2Zvcm09InRyYW5zbGF0ZSgwLjIzNywtMTIuNjM5KSI+JiN4YTsJCQkJPHRpdGxlIGlkPSJ0aXRsZTEwMzQyMCI+U2hlZXQuMzc4NDwvdGl0bGU+JiN4YTsJCQkJPHBhdGggaWQ9InBhdGgxMDM0MjIiIGlua3NjYXBlOmNvbm5lY3Rvci1jdXJ2YXR1cmU9IjAiIHN0eWxlPSJmaWxsOiNCQTE0MUE7IiBkPSJNMC4xMSwyNS4xOWMtMC4wNiwwLjQsMC4yOCwwLjgsMS4wMiwxLjExICAgICAgbDE1LjI0LDYuMjRjMS4zNywwLjU2LDMuNiwwLjU2LDQuOTcsMGwxNS4yNC02LjI0YzAuNzQtMC4zMSwxLjA4LTAuNzEsMS4wMi0xLjExdi0zLjU4YzAuMDUsMC4zOS0wLjI5LDAuNzktMS4wMiwxLjA5ICAgICAgbC0xNS4yNCw2LjI0Yy0xLjM3LDAuNTYtMy42LDAuNTYtNC45NywwTDEuMTMsMjIuN2MtMC44LTAuMzMtMS4xMy0wLjc4LTEtMS4yTDAuMTEsMjUuMTl6Ii8+JiN4YTsJCQk8L2c+JiN4YTsJCQk8ZyBpZD0ic2hhcGUzNzg1LTE1IiB0cmFuc2Zvcm09InRyYW5zbGF0ZSgwLjIzNykiPiYjeGE7CQkJCTx0aXRsZSBpZD0idGl0bGUxMDM0MjUiPlNoZWV0LjM3ODU8L3RpdGxlPiYjeGE7CQkJCTxwYXRoIGlkPSJwYXRoMTAzNDI3IiBpbmtzY2FwZTpjb25uZWN0b3ItY3VydmF0dXJlPSIwIiBzdHlsZT0iZmlsbDojMUUxRTFFO2ZpbGwtb3BhY2l0eTowLjI1OyIgZD0iTTAuMTEsMjUuMTkgICAgICBjLTAuMDYsMC40LDAuMjgsMC44LDEuMDIsMS4xMWwxNS4yNCw2LjI0YzEuMzcsMC41NiwzLjYsMC41Niw0Ljk3LDBsMTUuMjQtNi4yNGMwLjc0LTAuMzEsMS4wOC0wLjcxLDEuMDItMS4xMXYtMy41OCAgICAgIGMwLjA1LDAuMzktMC4yOSwwLjc5LTEuMDIsMS4wOWwtMTUuMjQsNi4yNGMtMS4zNywwLjU2LTMuNiwwLjU2LTQuOTcsMEwxLjEzLDIyLjdjLTAuOC0wLjMzLTEuMTMtMC43OC0xLTEuMkwwLjExLDI1LjE5eiIvPiYjeGE7CQkJPC9nPiYjeGE7CQkJPGcgaWQ9InNoYXBlMzc4Ni0xNyIgdHJhbnNmb3JtPSJ0cmFuc2xhdGUoMC4yMzcsLTYuMzE5NSkiPiYjeGE7CQkJCTx0aXRsZSBpZD0idGl0bGUxMDM0MzAiPlNoZWV0LjM3ODY8L3RpdGxlPiYjeGE7CQkJCTxwYXRoIGlkPSJwYXRoMTAzNDMyIiBpbmtzY2FwZTpjb25uZWN0b3ItY3VydmF0dXJlPSIwIiBzdHlsZT0iZmlsbDojMUUxRTFFO2ZpbGwtb3BhY2l0eTowLjI1OyIgZD0iTTAuMTEsMjUuMTkgICAgICBjLTAuMDYsMC40LDAuMjgsMC44LDEuMDIsMS4xMWwxNS4yNCw2LjI0YzEuMzcsMC41NiwzLjYsMC41Niw0Ljk3LDBsMTUuMjQtNi4yNGMwLjc0LTAuMzEsMS4wOC0wLjcxLDEuMDItMS4xMXYtMy41OCAgICAgIGMwLjA1LDAuMzktMC4yOSwwLjc5LTEuMDIsMS4wOWwtMTUuMjQsNi4yNGMtMS4zNywwLjU2LTMuNiwwLjU2LTQuOTcsMEwxLjEzLDIyLjdjLTAuOC0wLjMzLTEuMTMtMC43OC0xLTEuMkwwLjExLDI1LjE5eiIvPiYjeGE7CQkJPC9nPiYjeGE7CQkJPGcgaWQ9InNoYXBlMzc4Ny0xOSIgdHJhbnNmb3JtPSJ0cmFuc2xhdGUoMC4yMzcsLTEyLjYzOSkiPiYjeGE7CQkJCTx0aXRsZSBpZD0idGl0bGUxMDM0MzUiPlNoZWV0LjM3ODc8L3RpdGxlPiYjeGE7CQkJCTxwYXRoIGlkPSJwYXRoMTAzNDM3IiBpbmtzY2FwZTpjb25uZWN0b3ItY3VydmF0dXJlPSIwIiBzdHlsZT0iZmlsbDojMUUxRTFFO2ZpbGwtb3BhY2l0eTowLjI1OyIgZD0iTTAuMTEsMjUuMTkgICAgICBjLTAuMDYsMC40LDAuMjgsMC44LDEuMDIsMS4xMWwxNS4yNCw2LjI0YzEuMzcsMC41NiwzLjYsMC41Niw0Ljk3LDBsMTUuMjQtNi4yNGMwLjc0LTAuMzEsMS4wOC0wLjcxLDEuMDItMS4xMXYtMy41OCAgICAgIGMwLjA1LDAuMzktMC4yOSwwLjc5LTEuMDIsMS4wOWwtMTUuMjQsNi4yNGMtMS4zNywwLjU2LTMuNiwwLjU2LTQuOTcsMEwxLjEzLDIyLjdjLTAuOC0wLjMzLTEuMTMtMC43OC0xLTEuMkwwLjExLDI1LjE5eiIvPiYjeGE7CQkJPC9nPiYjeGE7CQkJPGcgaWQ9InNoYXBlMzc4OC0yMSIgdHJhbnNmb3JtPSJ0cmFuc2xhdGUoMCwtMTYuMjM5KSI+JiN4YTsJCQkJPHRpdGxlIGlkPSJ0aXRsZTEwMzQ0MCI+U2hlZXQuMzc4ODwvdGl0bGU+JiN4YTsJCQkJPHBhdGggaWQ9InBhdGgxMDM0NDIiIGlua3NjYXBlOmNvbm5lY3Rvci1jdXJ2YXR1cmU9IjAiIHN0eWxlPSJmaWxsOiNCQTE0MUE7IiBkPSJNMzYuODEsMjQuMjZjMS4zOCwwLjU3LDEuMzgsMS40OCwwLDIuMDQgICAgICBsLTE1LjIzLDYuMjRjLTEuMzcsMC41Ni0zLjYsMC41Ni00Ljk3LDBMMS4zNywyNi4zQzAsMjUuNzQsMCwyNC44MywxLjM3LDI0LjI2bDE1LjI0LTYuMjRjMS4zNy0wLjU2LDMuNi0wLjU2LDQuOTcsMCAgICAgIEwzNi44MSwyNC4yNnoiLz4mI3hhOwkJCTwvZz4mI3hhOwkJPC9nPiYjeGE7CQk8ZyBpZD0ic2hhcGUzNzg5LTIzIiB0cmFuc2Zvcm09InRyYW5zbGF0ZSg2LjM2MTUsLTIyLjExMjMpIj4mI3hhOwkJCTx0aXRsZSBpZD0idGl0bGUxMDM0NDYiPlNoZWV0LjM3ODk8L3RpdGxlPiYjeGE7CQkJPHBhdGggaWQ9InBhdGgxMDM0NDgiIGlua3NjYXBlOmNvbm5lY3Rvci1jdXJ2YXR1cmU9IjAiIHN0eWxlPSJmaWxsOiNGRkZGRkY7IiBkPSJNOC4wNCwzMi4zM2MtMS43NCwwLjc3LTQuNTYsMC43Ny02LjMsMCAgICAgQzAsMzEuNTYsMCwzMC4zLDEuNzQsMjkuNTNjMS43NC0wLjc3LDQuNTYtMC43Nyw2LjMsMEM5Ljc3LDMwLjMsOS43OCwzMS41Niw4LjA0LDMyLjMzeiIvPiYjeGE7CQk8L2c+JiN4YTsJCTxnIGlkPSJzaGFwZTM3OTAtMjUiIHRyYW5zZm9ybT0idHJhbnNsYXRlKDEzLjIxOCwtMTcuOTg4KSI+JiN4YTsJCQk8dGl0bGUgaWQ9InRpdGxlMTAzNDUxIj5TaGVldC4zNzkwPC90aXRsZT4mI3hhOwkJCTxwYXRoIGlkPSJwYXRoMTAzNDUzIiBpbmtzY2FwZTpjb25uZWN0b3ItY3VydmF0dXJlPSIwIiBzdHlsZT0iZmlsbDojRkZGRkZGOyIgZD0iTTAsMzAuMmw4LjkyLTEuMDZMNi41MywzMy4xTDAsMzAuMnoiLz4mI3hhOwkJPC9nPiYjeGE7CQk8ZyBpZD0ic2hhcGUzNzkxLTI3IiB0cmFuc2Zvcm09InRyYW5zbGF0ZSgyMS44NjQsLTIxLjg5MSkiPiYjeGE7CQkJPHRpdGxlIGlkPSJ0aXRsZTEwMzQ1NiI+U2hlZXQuMzc5MTwvdGl0bGU+JiN4YTsJCQk8cGF0aCBpZD0icGF0aDEwMzQ1OCIgaW5rc2NhcGU6Y29ubmVjdG9yLWN1cnZhdHVyZT0iMCIgc3R5bGU9ImZpbGw6IzFFMUUxRTtmaWxsLW9wYWNpdHk6MC4yNTsiIGQ9Ik01LjM0LDMzLjFMMCwzMC43MyAgICAgbDUuMzQtMi4zN2w1LjMzLDIuMzdMNS4zNCwzMy4xeiIvPiYjeGE7CQk8L2c+JiN4YTsJCTxnIGlkPSJzaGFwZTM3OTItMjkiIHRyYW5zZm9ybT0idHJhbnNsYXRlKDIxLjg2NCwtMjEuODkxKSI+JiN4YTsJCQk8dGl0bGUgaWQ9InRpdGxlMTAzNDYxIj5TaGVldC4zNzkyPC90aXRsZT4mI3hhOwkJCTxwYXRoIGlkPSJwYXRoMTAzNDYzIiBpbmtzY2FwZTpjb25uZWN0b3ItY3VydmF0dXJlPSIwIiBzdHlsZT0iZmlsbDojMUUxRTFFO2ZpbGwtb3BhY2l0eTowLjI1OyIgZD0iTTUuMzQsMzMuMUwwLDMwLjczICAgICBsNS4zNC0yLjM3VjMzLjF6Ii8+JiN4YTsJCTwvZz4mI3hhOwkJPGcgaWQ9InNoYXBlMzc5My0zMSIgdHJhbnNmb3JtPSJ0cmFuc2xhdGUoMTMuODk2NywtMjUuNjE1NSkiPiYjeGE7CQkJPHRpdGxlIGlkPSJ0aXRsZTEwMzQ2NiI+U2hlZXQuMzc5MzwvdGl0bGU+JiN4YTsJCQk8cGF0aCBpZD0icGF0aDEwMzQ2OCIgaW5rc2NhcGU6Y29ubmVjdG9yLWN1cnZhdHVyZT0iMCIgc3R5bGU9ImZpbGw6I0ZGRkZGRjsiIGQ9Ik0zLjQ4LDMxLjU1TDAsMzEuMjRsMy4wOS0wLjc4bC0wLjQtMS41NyAgICAgbDIuNjIsMS4wN2wzLjI0LTAuNjZsLTEuNDgsMS40NGwyLjQxLDEuMTdsLTMuNTQtMC4xOEw0LjE5LDMzLjFMMy40OCwzMS41NXoiLz4mI3hhOwkJPC9nPiYjeGE7CTwvZz4mI3hhOzwvZz4mI3hhOzwvc3ZnPg==;strokeColor=#FFFFFF;fillColor=#FFB570;fontSize=50;fontColor=#000000;" vertex="1" parent="1">
          <mxGeometry x="2870" y="1222" width="166.23" height="140" as="geometry" />
        </mxCell>
        <mxCell id="Wtf6WgaonPSGz3_DOAq4-172" value="" style="shape=image;verticalLabelPosition=bottom;labelBackgroundColor=#ffffff;verticalAlign=top;aspect=fixed;imageAspect=0;image=data:image/svg+xml,PHN2ZyB4bWxuczpjYz0iaHR0cDovL2NyZWF0aXZlY29tbW9ucy5vcmcvbnMjIiB4bWxuczpkYz0iaHR0cDovL3B1cmwub3JnL2RjL2VsZW1lbnRzLzEuMS8iIHhtbG5zOmlua3NjYXBlPSJodHRwOi8vd3d3Lmlua3NjYXBlLm9yZy9uYW1lc3BhY2VzL2lua3NjYXBlIiB4bWxuczpyZGY9Imh0dHA6Ly93d3cudzMub3JnLzE5OTkvMDIvMjItcmRmLXN5bnRheC1ucyMiIHhtbG5zOnNvZGlwb2RpPSJodHRwOi8vc29kaXBvZGkuc291cmNlZm9yZ2UubmV0L0RURC9zb2RpcG9kaS0wLmR0ZCIgeG1sbnM6c3ZnPSJodHRwOi8vd3d3LnczLm9yZy8yMDAwL3N2ZyIgeG1sbnM9Imh0dHA6Ly93d3cudzMub3JnLzIwMDAvc3ZnIiB4bWxuczp4bGluaz0iaHR0cDovL3d3dy53My5vcmcvMTk5OS94bGluayIgdmVyc2lvbj0iMS4xIiBpZD0ic3ZnMTAxMjg5IiBpbmtzY2FwZTp2ZXJzaW9uPSIwLjkyLjMgKDI0MDU1NDYsIDIwMTgtMDMtMTEpIiBzb2RpcG9kaTpkb2NuYW1lPSJtb25nb2RiLnN2ZyIgeD0iMHB4IiB5PSIwcHgiIHZpZXdCb3g9IjAgMCAxMDEuMjggNjQuNDYiIHN0eWxlPSJlbmFibGUtYmFja2dyb3VuZDpuZXcgMCAwIDEwMS4yOCA2NC40NjsiIHhtbDpzcGFjZT0icHJlc2VydmUiPiYjeGE7PHNvZGlwb2RpOm5hbWVkdmlldyBib3JkZXJjb2xvcj0iIzY2NjY2NiIgYm9yZGVyb3BhY2l0eT0iMSIgZml0LW1hcmdpbi1ib3R0b209IjAiIGZpdC1tYXJnaW4tbGVmdD0iMCIgZml0LW1hcmdpbi1yaWdodD0iMCIgZml0LW1hcmdpbi10b3A9IjAiIGdyaWR0b2xlcmFuY2U9IjEwIiBndWlkZXRvbGVyYW5jZT0iMTAiIGlkPSJuYW1lZHZpZXcxMDEyOTEiIGlua3NjYXBlOmN1cnJlbnQtbGF5ZXI9InN2ZzEwMTI4OSIgaW5rc2NhcGU6Y3g9IjY3LjUyMzY1MyIgaW5rc2NhcGU6Y3k9IjQzLjE3NTI0NCIgaW5rc2NhcGU6cGFnZW9wYWNpdHk9IjAiIGlua3NjYXBlOnBhZ2VzaGFkb3c9IjIiIGlua3NjYXBlOndpbmRvdy1oZWlnaHQ9IjEwMTciIGlua3NjYXBlOndpbmRvdy1tYXhpbWl6ZWQ9IjEiIGlua3NjYXBlOndpbmRvdy13aWR0aD0iMTkyMCIgaW5rc2NhcGU6d2luZG93LXg9Ii04IiBpbmtzY2FwZTp3aW5kb3cteT0iLTgiIGlua3NjYXBlOnpvb209IjkuODQ1NDgxNCIgb2JqZWN0dG9sZXJhbmNlPSIxMCIgcGFnZWNvbG9yPSIjZmZmZmZmIiBzaG93Z3JpZD0iZmFsc2UiPiYjeGE7CTwvc29kaXBvZGk6bmFtZWR2aWV3PiYjeGE7PGcgaWQ9ImcxMDEyODciIHRyYW5zZm9ybT0idHJhbnNsYXRlKC0wLjY0NTM3OTIxLC0wLjk0MzY1ODU5KSI+JiN4YTsJPHRpdGxlIGlkPSJ0aXRsZTEwMTIxNyI+UGFnZS0xPC90aXRsZT4mI3hhOwk8ZyBpZD0iZ3JvdXAzOTM5LTEiIHRyYW5zZm9ybT0idHJhbnNsYXRlKDAuNTc1NTk0LC0wLjU4MDQ2NikiPiYjeGE7CQk8dGl0bGUgaWQ9InRpdGxlMTAxMjE5Ij5Nb25nb0RCPC90aXRsZT4mI3hhOwkJPGcgaWQ9Imdyb3VwMzk0MC0yIj4mI3hhOwkJCTx0aXRsZSBpZD0idGl0bGUxMDEyMjEiPkxheWVyIDE8L3RpdGxlPiYjeGE7CQkJPGcgaWQ9Imdyb3VwMzk0MS0zIj4mI3hhOwkJCQk8dGl0bGUgaWQ9InRpdGxlMTAxMjIzIj5zdmdfMTwvdGl0bGU+JiN4YTsJCQkJPGcgaWQ9Imdyb3VwMzk0Mi00IiB0cmFuc2Zvcm09InRyYW5zbGF0ZSgzOS4zOTksLTIwLjUxMTUpIj4mI3hhOwkJCQkJPHRpdGxlIGlkPSJ0aXRsZTEwMTIyNSI+Zzg2MjwvdGl0bGU+JiN4YTsJCQkJCTxnIGlkPSJzaGFwZTM5NDMtNSIgdHJhbnNmb3JtPSJ0cmFuc2xhdGUoOS43MDgzNywtNS44MDEwNykiPiYjeGE7CQkJCQkJPHRpdGxlIGlkPSJ0aXRsZTEwMTIyNyI+cGF0aDI8L3RpdGxlPiYjeGE7CQkJCQkJPHBhdGggaWQ9InBhdGgxMDEyMjkiIGlua3NjYXBlOmNvbm5lY3Rvci1jdXJ2YXR1cmU9IjAiIHN0eWxlPSJmaWxsOiM1OTk2MzY7IiBkPSJNMC4xNCwyNy45NmMwLjM0LDAuNjIsMC43OSwxLjYsMS4xOCwyLjIgICAgICAgIGMwLjI2LDAuNDEsMC41NSwwLjc3LDAuODksMS4xYzAuOTgsMC45OSwxLjkxLDIuMDIsMi43NSwzLjEyYzEuOTksMi42MSwzLjMzLDUuNTEsNC4yOSw4LjY1YzAuNTgsMS45MiwwLjg5LDMuODksMC45MSw1Ljg4ICAgICAgICBjMC4xLDUuOTQtMS45NCwxMS4wNS02LjA2LDE1LjI5Yy0wLjY3LDAuNjctMS4zOSwxLjI5LTIuMTYsMS44NWMtMC40MSwwLTAuNi0wLjMyLTAuNzctMC42Yy0wLjMxLTAuNTMtMC41LTEuMTMtMC41OS0xLjczICAgICAgICBjLTAuMTUtMC43Mi0wLjI0LTEuNDQtMC4yLTIuMThjMC0wLjEyLDAtMC4yMiwwLTAuMzRDMC4zNiw2MS4xMywwLDI4LjEyLDAuMTQsMjcuOTZ6Ii8+JiN4YTsJCQkJCTwvZz4mI3hhOwkJCQkJPGcgaWQ9InNoYXBlMzk0NC03IiB0cmFuc2Zvcm09InRyYW5zbGF0ZSgwLC01LjM5MzU3KSI+JiN4YTsJCQkJCQk8dGl0bGUgaWQ9InRpdGxlMTAxMjMyIj5wYXRoODwvdGl0bGU+JiN4YTsJCQkJCQk8cGF0aCBpZD0icGF0aDEwMTIzNCIgaW5rc2NhcGU6Y29ubmVjdG9yLWN1cnZhdHVyZT0iMCIgc3R5bGU9ImZpbGw6IzZDQUM0ODsiIGQ9Ik05Ljg1LDI3LjQ4Yy0wLjA1LTAuMS0wLjA5LTAuMDMtMC4xNCwwLjAyICAgICAgICBjMC4wMiwwLjQ4LTAuMTUsMC45MS0wLjQxLDEuMzJjLTAuMjksMC40MS0wLjY3LDAuNzItMS4wNSwxLjA1Yy0yLjE0LDEuODUtMy44Miw0LjA4LTUuMTYsNi41NyAgICAgICAgYy0xLjc3LDMuMzYtMi43MSw2Ljk1LTIuOTcsMTAuNzRDMCw0OC41NSwwLjU1LDUzLjM2LDAuOTgsNTQuNzZjMS4xOCwzLjY5LDMuMjksNi43OCw2LjAyLDkuNDYgICAgICAgIGMwLjY3LDAuNjUsMS4zOSwxLjI1LDIuMTMsMS44M2MwLjIyLDAsMC4yNC0wLjIsMC4yOS0wLjM0YzAuMS0wLjMxLDAuMTctMC42MiwwLjIyLTAuOTNjMC4yMS0xLjIsMC4zMy0yLjQsMC40OC0zLjYgICAgICAgIEMxMC4xMiw2MS4wNCw5LjkyLDI3LjYsOS44NSwyNy40OHoiLz4mI3hhOwkJCQkJPC9nPiYjeGE7CQkJCQk8ZyBpZD0ic2hhcGUzOTQ1LTkiIHRyYW5zZm9ybT0idHJhbnNsYXRlKDkuMTMzMDcpIj4mI3hhOwkJCQkJCTx0aXRsZSBpZD0idGl0bGUxMDEyMzciPnBhdGgxMDwvdGl0bGU+JiN4YTsJCQkJCQk8cGF0aCBpZD0icGF0aDEwMTIzOSIgaW5rc2NhcGU6Y29ubmVjdG9yLWN1cnZhdHVyZT0iMCIgc3R5bGU9ImZpbGw6I0MyQkZCRjsiIGQ9Ik0xLjg5LDYxLjcxYzAuMDUtMC41NSwwLjMyLTEuMDEsMC42LTEuNDcgICAgICAgIGMtMC4yOC0wLjEyLTAuNS0wLjM2LTAuNjctMC42MmMtMC4xNC0wLjI0LTAuMjYtMC41My0wLjM2LTAuNzljLTAuMzMtMS4wMS0wLjQxLTIuMDYtMC41LTMuMDlsMCwwYzAtMC4xLDAtMC4yMiwwLTAuMzFsMCwwICAgICAgICBjMC0wLjEsMC0wLjIyLDAtMC4zMmMtMC4xMiwwLjEtMC4xNCwwLjkyLTAuMTQsMS4wNGMtMC4wOCwxLjEtMC4yMiwyLjE4LTAuNDQsMy4yM0MwLjMxLDU5LjgxLDAuMjYsNjAuMjQsMCw2MC42MyAgICAgICAgYzAsMC4wNSwwLDAuMDksMC4wMiwwLjE3YzAuNDQsMS4yNywwLjU2LDIuNTYsMC42MywzLjg4YzAsMC4xNywwLDAuMzEsMCwwLjQ4YzAsMC41Ny0wLjAzLDAuNDUsMC40NSwwLjY1ICAgICAgICBjMC4xOSwwLjA3LDAuNDEsMC4wOSwwLjYsMC4yNGMwLjE1LDAsMC4xNy0wLjEyLDAuMTctMC4yMkMxLjg1LDY1LjU3LDEuOCw2NS4zLDEuOCw2NS4wNGMwLTAuNzQtMC4wMy0xLjQ2LDAtMi4yMSAgICAgICAgQzEuNzcsNjIuNDUsMS44NSw2Mi4wNywxLjg5LDYxLjcxeiIvPiYjeGE7CQkJCQk8L2c+JiN4YTsJCQkJPC9nPiYjeGE7CQkJCTxnIGlkPSJncm91cDM5NDYtMTEiPiYjeGE7CQkJCQk8dGl0bGUgaWQ9InRpdGxlMTAxMjQzIj5nODgwPC90aXRsZT4mI3hhOwkJCQkJPGcgaWQ9InNoYXBlMzk0Ny0xMiIgdHJhbnNmb3JtPSJ0cmFuc2xhdGUoMCwtNi4xMTU1NikiPiYjeGE7CQkJCQkJPHRpdGxlIGlkPSJ0aXRsZTEwMTI0NSI+cGF0aDQ8L3RpdGxlPiYjeGE7CQkJCQkJPHBhdGggaWQ9InBhdGgxMDEyNDciIGlua3NjYXBlOmNvbm5lY3Rvci1jdXJ2YXR1cmU9IjAiIHN0eWxlPSJmaWxsOiM0NzQ3NEE7IiBkPSJNMy44NSw2MS40N2MwLDAuODgsMCwxLjc2LDAsMi42MiAgICAgICAgYzAsMC4xMSwwLDAuMjEsMC4wMiwwLjMxYzAuMDMsMC4zMiwwLjIyLDAuNTEsMC41MiwwLjU5YzAuMjYsMC4wNywwLjUzLDAuMTIsMC43OSwwLjE2YzAuMTYsMC4wMSwwLjIxLDAuMDgsMC4yMywwLjI0ICAgICAgICBjMC4wMSwwLjU5LTAuMDQsMC42Ni0wLjYxLDAuNjJjLTEuMzMtMC4wNy0yLjY2LTAuMDktMy45OSwwYy0wLjA1LDAtMC4xLDAtMC4xNCwwYy0wLjQxLDAuMDItMC40NS0wLjAyLTAuNDUtMC40MyAgICAgICAgYzAtMC4wNywwLjAyLTAuMTYsMC4wMi0wLjIzYzAtMC4xMywwLjA5LTAuMTksMC4yMS0wLjE5YzAuMjgtMC4wMywwLjUzLTAuMSwwLjc5LTAuMTVjMC4zNy0wLjA5LDAuNTctMC4zMSwwLjYxLTAuNjcgICAgICAgIGMwLjA1LTAuNCwwLjA1LTAuODIsMC4wNS0xLjIxYzAuMDUtMS41NCwwLjAzLTMuMSwwLjAyLTQuNjNjMC0wLjMtMC4xMi0wLjUyLTAuMzgtMC42NmMtMC4zMS0wLjE3LTAuNjQtMC4zMS0wLjk5LTAuNDIgICAgICAgIGMtMC4xLTAuMDMtMC4yLTAuMDUtMC4yOS0wLjFDMC4wMiw1Ny4yLDAsNTYuOTgsMC4yNCw1Ni44NGMwLjA5LTAuMDUsMC4xOS0wLjA5LDAuMy0wLjExYzEuMDUtMC4xNSwyLjA3LTAuNDEsMy4wNy0wLjc3ICAgICAgICBjMC4yMS0wLjA3LDAuMjYtMC4wNiwwLjI4LDAuMTVjMC4wMSwwLjE0LDAsMC4yOC0wLjAyLDAuNGMtMC4wMywwLjIyLTAuMDMsMC40NS0wLjAzLDAuNjZjMCwwLjA4LDAuMDEsMC4xNywwLjEsMC4yMiAgICAgICAgYzAuMDksMC4wNSwwLjE3LDAsMC4yNC0wLjA1YzAuMzYtMC4yOCwwLjczLTAuNTQsMS4xMi0wLjc2YzAuNTctMC4zMSwxLjE4LTAuNTksMS44My0wLjY4YzAuOC0wLjEsMS40OSwwLjExLDIuMSwwLjYzICAgICAgICBjMC4yNSwwLjIyLDAuNDYsMC40OCwwLjY1LDAuNzZjMC4xNywwLjI0LDAuMTksMC4yNiwwLjQyLDAuMDhjMC42NS0wLjQ4LDEuMzQtMC45MSwyLjA5LTEuMjJjMC43Ny0wLjMzLDEuNTctMC4zOCwyLjM2LTAuMTEgICAgICAgIGMwLjgyLDAuMywxLjM3LDAuODcsMS43LDEuNjRjMC4yNywwLjYzLDAuMzksMS4yOCwwLjM5LDEuOTRjMCwxLjAyLDAsMi4wNCwwLDMuMDdjMCwwLjUyLDAsMS4wNCwwLDEuNTYgICAgICAgIGMwLDAuMzEsMC4xNCwwLjUyLDAuNDQsMC42NmMwLjMyLDAuMTMsMC42OSwwLjE5LDEuMDMsMC4yNWMwLjIzLDAuMDYsMC4yMywwLjA2LDAuMjMsMC4yOGMtMC4wNCwwLjU3LTAuMDksMC42MS0wLjY0LDAuNTcgICAgICAgIGMtMS4zOC0wLjA5LTIuNzgtMC4wNy00LjE3LDBjLTAuMjcsMC4wMi0wLjI3LDAuMDItMC4yOS0wLjI2YzAtMC4wMywwLTAuMDUsMC0wLjA4Yy0wLjAyLTAuNDctMC4wMi0wLjQ3LDAuNDMtMC41NyAgICAgICAgYzAuMTYtMC4wNCwwLjMtMC4wNywwLjQ1LTAuMTNjMC4zNS0wLjEsMC41Mi0wLjMyLDAuNTQtMC42N2MwLjAxLTAuNDMsMC4wMy0wLjg2LDAuMDUtMS4yOWMwLTEuMTMsMC4wMy0yLjI3LTAuMDQtMy4zOSAgICAgICAgYy0wLjAxLTAuMjktMC4wNi0wLjU5LTAuMTktMC44OGMtMC40My0xLjA2LTEuMzgtMS40NC0yLjI5LTEuMzNjLTAuNjksMC4wNy0xLjMsMC4zNC0xLjg3LDAuNzQgICAgICAgIGMtMC4xMiwwLjA5LTAuMjEsMC4xOS0wLjE5LDAuMzZjMC4xNiwxLjExLDAuMDUsMi4yMSwwLjA3LDMuMzJjMC4wMiwwLjc5LDAsMS42MSwwLDIuNGMwLDAuNDMsMC4xNywwLjY0LDAuNTksMC43NCAgICAgICAgYzAuMjYsMC4wNywwLjUyLDAuMTMsMC43OSwwLjE4YzAuMTIsMC4wMSwwLjE5LDAuMDcsMC4xOSwwLjJjMCwwLjA2LDAsMC4xMSwwLDAuMTRjLTAuMDIsMC40OS0wLjA1LDAuNTItMC41MywwLjUgICAgICAgIGMtMS4zOS0wLjA3LTIuNzctMC4wNS00LjEzLDBjLTAuNDcsMC4wMi0wLjUyLTAuMDMtMC40OS0wLjUxYzAuMDItMC4yOCwwLjA2LTAuMywwLjMxLTAuMzVjMC4xOS0wLjAzLDAuMzgtMC4wNywwLjU3LTAuMSAgICAgICAgYzAuNTItMC4xMSwwLjctMC4zLDAuNzMtMC44M2MwLjAyLTAuMzgsMC4wNS0wLjc4LDAuMDUtMS4xNmMwLjAyLTEuMTYsMC4wNS0yLjMyLTAuMDMtMy40N2MtMC4wNC0wLjQzLTAuMTQtMC44NS0wLjM3LTEuMjUgICAgICAgIGMtMC4zNC0wLjY0LTAuODktMC45Ni0xLjYyLTFjLTAuNzQtMC4wNS0xLjQsMC4yMy0yLjAyLDAuNTdjLTAuNDMsMC4yNC0wLjYyLDAuNTUtMC41OSwxLjA2ICAgICAgICBDMy44Nyw1OS44MSwzLjg0LDYwLjY0LDMuODUsNjEuNDdDMy44NCw2MS40NywzLjg1LDYxLjQ3LDMuODUsNjEuNDdDMy44NSw2MS40NywzLjg1LDYxLjQ3LDMuODUsNjEuNDd6Ii8+JiN4YTsJCQkJCTwvZz4mI3hhOwkJCQkJPGcgaWQ9Imdyb3VwMzk0OC0xNCIgdHJhbnNmb3JtPSJ0cmFuc2xhdGUoMjAuMzY3OSkiPiYjeGE7CQkJCQkJPHRpdGxlIGlkPSJ0aXRsZTEwMTI1MCI+Zzg3MDwvdGl0bGU+JiN4YTsJCQkJCQk8ZyBpZD0ic2hhcGUzOTQ5LTE1IiB0cmFuc2Zvcm09InRyYW5zbGF0ZSgxMS45NzIsLTUuOTYwMDYpIj4mI3hhOwkJCQkJCQk8dGl0bGUgaWQ9InRpdGxlMTAxMjUyIj5wYXRoNjwvdGl0bGU+JiN4YTsJCQkJCQkJPHBhdGggaWQ9InBhdGgxMDEyNTQiIGlua3NjYXBlOmNvbm5lY3Rvci1jdXJ2YXR1cmU9IjAiIHN0eWxlPSJmaWxsOiM0NzQ3NEE7IiBkPSJNNC4wNiw2MS40MmMwLDAuODEsMCwxLjYyLDAsMi40MyAgICAgICAgIGMwLDAuMTcsMC4wMiwwLjM1LDAuMDMsMC41MmMwLjA0LDAuMjYsMC4xOCwwLjQxLDAuNDIsMC40OGMwLjI5LDAuMDksMC42LDAuMTQsMC45MSwwLjE2YzAuMTgsMC4wMiwwLjIxLDAuMDksMC4yMywwLjIyICAgICAgICAgYzAsMC4wNCwwLDAuMDcsMCwwLjEyYy0wLjAyLDAuNjEtMC4wOSwwLjY4LTAuNjcsMC42NGMtMS4zMi0wLjA4LTIuNjMtMC4wNy0zLjk0LDBjLTAuMTgsMC0wLjM1LDAuMDItMC41MiwwLjAyICAgICAgICAgYy0wLjExLDAtMC4xNC0wLjA1LTAuMTYtMC4xMmMtMC4wNS0wLjI0LTAuMDUtMC40OCwwLTAuNzNjMC4wMi0wLjEsMC4wOS0wLjEzLDAuMTktMC4xNWMwLjI0LTAuMDQsMC40Ny0wLjA5LDAuNzEtMC4xNCAgICAgICAgIGMwLjQzLTAuMSwwLjU5LTAuMjgsMC42MS0wLjcyYzAuMDMtMC40OSwwLjA1LTAuOTcsMC4wNS0xLjQ2YzAtMS40MSwwLTIuODMsMC00LjI1YzAtMC4zMS0wLjEyLTAuNS0wLjQtMC42NCAgICAgICAgIGMtMC4zMS0wLjE3LTAuNjQtMC4yOS0wLjk4LTAuNDFjLTAuMTEtMC4wMy0wLjIxLTAuMDctMC4zLTAuMTJDMC4wMiw1Ny4xMSwwLDU2Ljg5LDAuMjEsNTYuNzJjMC4xLTAuMDksMC4yLTAuMTIsMC4zNC0wLjE0ICAgICAgICAgYzEuMTEtMC4xNywyLjE4LTAuNDIsMy4yMi0wLjgzYzAuMTItMC4wNSwwLjE3LTAuMDIsMC4yMiwwLjA5YzAuMDUsMC4xLDAuMDcsMC4yMiwwLjA1LDAuMzRjLTAuMDEsMC4yOC0wLjAzLDAuNTQtMC4wNSwwLjgxICAgICAgICAgYzAsMC4xMS0wLjA1LDAuMjQsMC4wNCwwLjNjMC4xLDAuMDcsMC4xNy0wLjA5LDAuMjUtMC4xNGMwLjUyLTAuNDIsMS4wOC0wLjgsMS42OC0xLjA3YzAuNTQtMC4yNCwxLjA5LTAuNDIsMS43MS0wLjM4ICAgICAgICAgYzEuMTYsMC4wNywxLjk5LDAuNjUsMi41MiwxLjY3YzAuMjgsMC41NCwwLjQsMS4xMywwLjQ1LDEuNzNjMC4wNCwwLjQyLDAuMDUsMC44NSwwLjA1LDEuMjhjMCwxLjE5LDAuMDIsMi4zNywwLjAyLDMuNTYgICAgICAgICBjMCwwLjA4LDAsMC4xNywwLDAuMjZjMC4wMiwwLjI5LDAuMTIsMC40OCwwLjQyLDAuNThjMC4zMSwwLjExLDAuNiwwLjE4LDAuOTMsMC4yM2MwLjI3LDAuMDMsMC4yOSwwLjA5LDAuMzEsMC4zNCAgICAgICAgIGMwLDAuMDQsMCwwLjA2LDAsMC4wOWMtMC4wNCwwLjU5LTAuMDcsMC42MS0wLjY2LDAuNTdjLTEuMjktMC4wNy0yLjU5LTAuMDctMy44NywwYy0wLjE3LDAuMDItMC4zNCwwLTAuNTIsMC4wMiAgICAgICAgIGMtMC4xLDAtMC4xNy0wLjAyLTAuMTktMC4xMmMtMC4wMy0wLjIzLTAuMDYtMC40NS0wLjAxLTAuNjljMC4wMS0wLjExLDAuMDctMC4xNiwwLjE5LTAuMThjMC4yNi0wLjAzLDAuNTMtMC4wNywwLjc5LTAuMTMgICAgICAgICBjMC4yOC0wLjA3LDAuNDMtMC4yNSwwLjQ3LTAuNTJjMC4wMi0wLjE2LDAuMDMtMC4zMywwLjAzLTAuNDljMC0xLjIxLDAtMi40Mi0wLjAxLTMuNjFjMC0wLjQxLTAuMDItMC44My0wLjExLTEuMjQgICAgICAgICBjLTAuMi0wLjktMC44OC0xLjUtMS43OS0xLjYxYy0wLjgtMC4wOC0xLjUxLDAuMTItMi4xOCwwLjU2Yy0wLjMzLDAuMi0wLjQ3LDAuNS0wLjQ3LDAuODZjMCwwLjYsMCwxLjIxLDAsMS44MyAgICAgICAgIGMwLDAuMjYsMCwwLjUyLDAsMC43OEM0LjA0LDYxLjQyLDQuMDQsNjEuNDIsNC4wNiw2MS40MkM0LjA2LDYxLjQyLDQuMDYsNjEuNDIsNC4wNiw2MS40MnoiLz4mI3hhOwkJCQkJCTwvZz4mI3hhOwkJCQkJCTxnIGlkPSJzaGFwZTM5NTAtMTciIHRyYW5zZm9ybT0idHJhbnNsYXRlKDUwLjgwNzYsLTYuMTE1NTIpIj4mI3hhOwkJCQkJCQk8dGl0bGUgaWQ9InRpdGxlMTAxMjU3Ij5wYXRoMTI8L3RpdGxlPiYjeGE7CQkJCQkJCTxwYXRoIGlkPSJwYXRoMTAxMjU5IiBpbmtzY2FwZTpjb25uZWN0b3ItY3VydmF0dXJlPSIwIiBzdHlsZT0iZmlsbDojQzJCRkJGOyIgZD0iTTE1LjgyLDU2LjY4ICAgICAgICAgYy0wLjE5LTEuMjYtMC42NS0yLjM4LTEuNDYtMy4zN2MtMC43My0wLjg4LTEuNjEtMS41My0yLjY2LTEuOTdjLTEuMDktMC40NS0yLjI1LTAuNTgtMy40Mi0wLjYyICAgICAgICAgYy0wLjQ5LTAuMDItNy4wOSwwLjA5LTcuNTcsMGMtMC4xMi0wLjAyLTAuMjEsMC4wMi0wLjI4LDAuMTJjLTAuMDgsMC4xNC0wLjE3LDAuMjYtMC4yMiwwLjRDMCw1MS43MSwwLDUxLjY3LDAuNSw1MS43NCAgICAgICAgIGMwLjQyLDAuMDcsMC44MSwwLjEsMS4yMSwwLjIzYzAuMzYsMC4xMiwwLjYyLDAuMzIsMC43MSwwLjcyYzAuMDMsMC4xOSwwLjA3LDYuMjcsMC4wNyw5LjExYzAsMC42Ny0wLjAyLDEuMzQtMC4wNywyLjAyICAgICAgICAgYy0wLjAyLDAuMTUtMC4wNCwwLjMxLTAuMDksMC40NWMtMC4wNywwLjItMC4xOSwwLjM4LTAuNCwwLjQ2Yy0wLjIyLDAuMTEtMC40NiwwLjE4LTAuNzIsMC4xOSAgICAgICAgIGMtMC40NywwLjA1LTAuNTQsMC4wNy0wLjY5LDAuNTljLTAuMDIsMC4wNy0wLjA0LDAuMTQtMC4wNSwwLjE5Yy0wLjA0LDAuMjItMC4wMiwwLjI2LDAuMiwwLjI2ICAgICAgICAgYzEuMDQsMC4wMiw0LjMxLDAuMDUsNS4xNywwLjA1YzAuNDgtMC4wMiwxLjI2LDAuMDQsMi4wMi0wLjAzYzAuNDctMC4wNiwwLjkzLTAuMDksMS40LTAuMThjMS41OS0wLjI5LDMuMDEtMC45NSw0LjIyLTIgICAgICAgICBjMC43LTAuNjIsMS4yNC0xLjM1LDEuNjUtMi4xOGMwLjQ5LTAuOTYsMC42OS0yLjAyLDAuNzUtMy4wOUMxNS45Niw1Ny45MywxNS45Myw1Ny4zLDE1LjgyLDU2LjY4TDE1LjgyLDU2LjY4eiBNMTMuMzIsNTkuMTQgICAgICAgICBjLTAuMDcsMS4xLTAuMjksMi4xNy0wLjg2LDMuMTRjLTAuNzMsMS4yNi0xLjc3LDIuMTQtMy4yLDIuNDVjLTAuNjIsMC4xNC0xLjI0LDAuMTktMS44OCwwLjExICAgICAgICAgYy0wLjQ3LTAuMDYtMC45Mi0wLjExLTEuMzUtMC4yNmMtMC43OC0wLjI4LTEuMDUtMC43Ni0xLjA3LTEuNTFjLTAuMDQtMS4wOCwwLTguNy0wLjAyLTEwLjQxYzAtMC42MywwLjI4LTAuNzYsMC43My0wLjc4ICAgICAgICAgYzAuNjctMC4wNSwxLjM2LTAuMDQsMi4wMywwLjAzYzAuNzMsMC4wNywxLjQyLDAuMjUsMi4xLDAuNTJjMC41LDAuMjEsMC45NiwwLjUsMS4zNiwwLjg1YzAuOTMsMC43OSwxLjU1LDEuOCwxLjg4LDIuOTcgICAgICAgICBDMTMuMzIsNTcuMiwxMy4zNyw1OC4xNywxMy4zMiw1OS4xNHoiLz4mI3hhOwkJCQkJCTwvZz4mI3hhOwkJCQkJCTxnIGlkPSJzaGFwZTM5NTEtMTkiIHRyYW5zZm9ybT0idHJhbnNsYXRlKDY3Ljg5MzIsLTYuMDExOSkiPiYjeGE7CQkJCQkJCTx0aXRsZSBpZD0idGl0bGUxMDEyNjIiPnBhdGgxNDwvdGl0bGU+JiN4YTsJCQkJCQkJPHBhdGggaWQ9InBhdGgxMDEyNjQiIGlua3NjYXBlOmNvbm5lY3Rvci1jdXJ2YXR1cmU9IjAiIHN0eWxlPSJmaWxsOiNDMkJGQkY7IiBkPSJNMTMuMDksNjAuNzJjMC0wLjEsMC0wLjE5LTAuMDEtMC4yOSAgICAgICAgIGMtMC4xNi0wLjk1LTAuNjYtMS42Ny0xLjQ0LTIuMjNjLTAuNS0wLjM2LTEuMDctMC42LTEuNjUtMC43OGMtMC4xMS0wLjAzLTAuMTktMC4wNi0wLjMtMC4wOGMwLjAyLTAuMDksMC4wNy0wLjExLDAuMTItMC4xMiAgICAgICAgIGMwLjM1LTAuMTgsMC42OC0wLjM3LDAuOTctMC42MmMwLjU0LTAuNDUsMC45LTEuMDEsMS4wNy0xLjY4YzAuMS0wLjM2LDAuMS0wLjczLDAuMDctMS4xMWMtMC4wOS0wLjk1LTAuNS0xLjY5LTEuMjYtMi4yNCAgICAgICAgIGMtMC44LTAuNTktMS43My0wLjgzLTIuNy0wLjg1Yy0xLjg2LTAuMDMtMy43NCwwLTUuNjEsMGMtMC41NCwwLTEuMDcsMC4wNC0xLjYyLTAuMDVjLTAuMTEtMC4wMi0wLjI1LTAuMDUtMC4zMywwLjA3ICAgICAgICAgYy0wLjE0LDAuMjItMC4yOCwwLjQ1LTAuMzMsMC43MWMtMC4wMiwwLjEyLDAuMDIsMC4xOSwwLjE1LDAuMmMwLjQsMC4wNiwwLjgsMC4xMywxLjIsMC4xOGMwLjQ2LDAuMDcsMC43OSwwLjMzLDAuODMsMC43NCAgICAgICAgIGMwLjAzLDAuMjksMC4wNSwwLjU3LDAuMDUsMC44NmMwLDEuMDgtMC4wMiwyLjE2LTAuMDQsMy4yM2MtMC4wMywyLjEzLTAuMDEsNC4yNy0wLjAxLDYuNGMwLDAuMzgtMC4wNiwwLjc0LTAuMTMsMS4xMiAgICAgICAgIGMtMC4wNSwwLjI2LTAuMTksMC40My0wLjQ0LDAuNTJDMS4zMyw2NC44LDEsNjQuOTEsMC42NCw2NC45MWMtMC4yMywwLTAuMzYsMC4wOC0wLjQ1LDAuMjljLTAuMDcsMC4xNS0wLjE0LDAuMzMtMC4xNiwwLjQ4ICAgICAgICAgQzAsNjUuODksMC4wNSw2NS45NiwwLjI2LDY1LjkyYzAuMTUtMC4wMSw1Ljg2LDAuMTMsNi45MywwLjAyYzAuNjQtMC4wNywxLjI4LTAuMTUsMS45LTAuMzRjMS4wOS0wLjM1LDIuMDktMC44NSwyLjg4LTEuNyAgICAgICAgIGMwLjY2LTAuNjksMS4wNC0xLjUyLDEuMDctMi40OEMxMy4wOSw2MS4xOSwxMy4wOSw2MC45NywxMy4wOSw2MC43MnogTTQuNzIsNTMuNjZjMC4wMy0wLjQ3LDAuMDMtMC45MiwwLjA1LTEuMzggICAgICAgICBjMC0wLjI2LDAuMS0wLjM4LDAuMzYtMC40NGMwLjQyLTAuMDgsMC44My0wLjA1LDEuMjQtMC4wM2MwLjQyLDAuMDMsMC44MiwwLjA5LDEuMjMsMC4yMWMwLjc2LDAuMjIsMS4zNSwwLjY1LDEuNjksMS4zOCAgICAgICAgIGMwLjE2LDAuMzMsMC4yNSwwLjY5LDAuMjUsMS4wNWMwLjAxLDAuNDktMC4wMiwwLjk1LTAuMjEsMS40MmMtMC4yOSwwLjY0LTAuNzYsMS4wNS0xLjQ0LDEuMTcgICAgICAgICBjLTAuNjcsMC4xMy0yLjU5LDAuMDctMi44OCwwLjA3Yy0wLjI2LDAtMC4yOC0wLjAzLTAuMjgtMC4yOWMwLTAuNTUsMC0xLjExLDAtMS42NGwwLDBDNC43LDU0LjcsNC42OCw1NC4xOCw0LjcyLDUzLjY2eiAgICAgICAgICBNMTAuMzMsNjIuOTVjLTAuMjksMC43OC0wLjgzLDEuMzItMS41OSwxLjYxYy0wLjQxLDAuMTYtMC44MywwLjI0LTEuMjgsMC4yMmMtMC41My0wLjAxLTEuMDcsMC0xLjYtMC4xICAgICAgICAgYy0wLjczLTAuMTUtMS4wNi0wLjg1LTEuMTEtMS4zNWMtMC4wOS0wLjg4LTAuMDMtMS43OC0wLjA1LTIuNDNjMC0wLjkyLDAtMS41OSwwLTIuMjhjMC0wLjI4LDAuMDMtMC4zNywwLjMzLTAuMzcgICAgICAgICBjMC41My0wLjAxLDEuMDctMC4wMywxLjYyLDAuMDJjMC4zOCwwLjA0LDAuNzQsMC4wNywxLjExLDAuMTRjMC43NywwLjE3LDEuNDgsMC40NywyLjA0LDEuMDdjMC40NCwwLjQ4LDAuNjksMS4wNywwLjc0LDEuNzEgICAgICAgICBDMTAuNTksNjEuOCwxMC41Niw2Mi4zOCwxMC4zMyw2Mi45NUMxMC4zMyw2Mi45NSwxMC4zMyw2Mi45NSwxMC4zMyw2Mi45NXoiLz4mI3hhOwkJCQkJCTwvZz4mI3hhOwkJCQkJCTxnIGlkPSJzaGFwZTM5NTItMjEiIHRyYW5zZm9ybT0idHJhbnNsYXRlKDI1LjU4NTIpIj4mI3hhOwkJCQkJCQk8dGl0bGUgaWQ9InRpdGxlMTAxMjY3Ij5wYXRoMTY8L3RpdGxlPiYjeGE7CQkJCQkJCTxwYXRoIGlkPSJwYXRoMTAxMjY5IiBpbmtzY2FwZTpjb25uZWN0b3ItY3VydmF0dXJlPSIwIiBzdHlsZT0iZmlsbDojNDc0NzRBOyIgZD0iTTguNzQsNTEuNzJjMC4xNiwwLjAyLDAuMzEsMC4wNiwwLjQ1LDAuMDcgICAgICAgICBjMC40OCwwLjAyLDEuMDUtMC4xNSwxLjIzLTAuODNjMC4wOC0wLjMyLDAuMS0wLjY0LDAtMC45OGMtMC4xMSwwLTAuMTYsMC4wOS0wLjIxLDAuMTJjLTAuMjYsMC4yMS0wLjU1LDAuMzMtMC44NiwwLjM2ICAgICAgICAgQzguNzIsNTAuNTMsOC4xLDUwLjUsNy41LDUwLjI3Yy0wLjI4LTAuMS0wLjU2LTAuMi0wLjg1LTAuMjljLTAuNTktMC4xOS0xLjIxLTAuMjgtMS44My0wLjI0ICAgICAgICAgYy0wLjg4LDAuMDctMS43MSwwLjM2LTIuNDksMC43N2MtMC44MywwLjQ1LTEuNDEsMS4xMy0xLjY5LDIuMDRjLTAuMTYsMC41NC0wLjE3LDEuMDktMC4xLDEuNjRjMC4xNywxLjI3LDAuODIsMi4xNSwyLDIuNjEgICAgICAgICBjMC4wNywwLjAyLDAuMTIsMC4wNSwwLjE5LDAuMDdjMC4xNiwwLjA5LDAuMTcsMC4xNywwLjAzLDAuM2MtMC4xMywwLjEtMC4yNywwLjItMC40MywwLjI5Yy0wLjM0LDAuMjEtMC42OSwwLjQxLTEuMDMsMC42NCAgICAgICAgIGMtMC4yNiwwLjE1LTAuMywwLjI4LTAuMjEsMC41NWMwLjEsMC4zMywwLjI5LDAuNjEsMC41NSwwLjgzYzAuMjQsMC4yMSwwLjUsMC4zNiwwLjgsMC40OGMwLjE5LDAuMDksMC4xOSwwLjE0LDAuMDEsMC4yOCAgICAgICAgIGMtMC4zMywwLjI0LTAuNjUsMC40Ny0wLjk4LDAuNzFjLTAuMzMsMC4yNC0wLjY2LDAuNTItMC45MywwLjgzYy0wLjQsMC40NS0wLjU0LDAuOTctMC40MiwxLjU1ICAgICAgICAgYzAuMTQsMC42MywwLjQzLDEuMTMsMC45LDEuNTZDMS40Nyw2NS4zLDIsNjUuNiwyLjYxLDY1Ljc1YzAuOTcsMC4yOCwxLjk3LDAuMywyLjk1LDAuMTFjMS40Mi0wLjI2LDIuNjUtMC45LDMuNjMtMS45NiAgICAgICAgIGMwLjY3LTAuNywxLjA3LTEuNTMsMS4xMS0yLjU0YzAuMDUtMS4yMS0wLjY5LTIuMjItMS44Ny0yLjUyYy0wLjMxLTAuMDctMC42Mi0wLjEyLTAuOTMtMC4xN2MtMC45NS0wLjEyLTEuOS0wLjE3LTIuODUtMC4yNCAgICAgICAgIGMtMC4zMS0wLjAyLTAuNjItMC4wNy0wLjg4LTAuMjNjLTAuMzMtMC4yLTAuNDItMC42LTAuMjEtMC44NmMwLjE1LTAuMTksMC4zNC0wLjMxLDAuNTktMC4zM2MwLjE5LTAuMDIsMC4zNi0wLjAzLDAuNTUtMC4wNSAgICAgICAgIGMxLjEyLTAuMTIsMi4wOS0wLjU3LDIuOTItMS4zM2MwLjQzLTAuNCwwLjcyLTAuOSwwLjg4LTEuNDdjMC4yMS0wLjc0LDAuMjEtMS41LDAuMDMtMi4yNkM4LjQ4LDUxLjcxLDguNSw1MS42OSw4Ljc0LDUxLjcyeiAgICAgICAgICBNNC41MSw2MC4zM2MwLjEsMC4wMSwwLjIxLDAsMC4zMSwwQzUuNTUsNjAuMzYsNi4yOSw2MC40MSw3LDYwLjZjMC4yNCwwLjA3LDAuNDUsMC4xNiwwLjY3LDAuMjYgICAgICAgICBjMC42OSwwLjM4LDAuOTUsMS4wNCwwLjg2LDEuNzVDOC40Myw2My4zOSw4LDYzLjk0LDcuMzIsNjQuM2MtMC40NCwwLjI0LTAuOTUsMC4zNi0xLjQ2LDAuNDJjLTAuMTksMC4wMS0wLjM3LDAtMC41NiwwICAgICAgICAgYy0wLjYsMC4wMS0xLjE5LTAuMDYtMS43Ni0wLjNjLTAuNC0wLjE1LTAuNzItMC4zOC0xLjAyLTAuNjljLTAuNi0wLjYtMC45LTEuNzEsMC4wMi0yLjYxQzMuMDksNjAuNiwzLjcxLDYwLjI2LDQuNTEsNjAuMzN6ICAgICAgICAgIE02LjQ4LDU0Ljk0Yy0wLjM2LDAuOTEtMS4xNiwxLjE5LTEuOTUsMS4wN2MtMC43My0wLjExLTEuMjYtMC41LTEuNjEtMS4xNmMtMC40NS0wLjg4LTAuNTctMS44LTAuMzEtMi43NSAgICAgICAgIGMwLjE5LTAuNywwLjYyLTEuMjQsMS4zOC0xLjM2YzAuOTctMC4xNywxLjg4LDAuMTcsMi4zOCwxLjE0YzAuMjUsMC40NywwLjM3LDEuMDQsMC4zNywxLjg1ICAgICAgICAgQzYuNzIsNTQuMDYsNi42NSw1NC41MSw2LjQ4LDU0Ljk0eiIvPiYjeGE7CQkJCQkJPC9nPiYjeGE7CQkJCQkJPGcgaWQ9InNoYXBlMzk1My0yMyIgdHJhbnNmb3JtPSJ0cmFuc2xhdGUoMCwtNS43NTI3NykiPiYjeGE7CQkJCQkJCTx0aXRsZSBpZD0idGl0bGUxMDEyNzIiPnBhdGgxODwvdGl0bGU+JiN4YTsJCQkJCQkJPHBhdGggaWQ9InBhdGgxMDEyNzQiIGlua3NjYXBlOmNvbm5lY3Rvci1jdXJ2YXR1cmU9IjAiIHN0eWxlPSJmaWxsOiM0NzQ3NEE7IiBkPSJNMTAuMyw1OS41MmMtMC4xNi0wLjk0LTAuNS0xLjc4LTEuMTQtMi40OSAgICAgICAgIEM4LjIxLDU1Ljk3LDcsNTUuNTIsNS42Myw1NS41MWMtMS4xOS0wLjAyLTIuMzEsMC4zMy0zLjMyLDAuOTVjLTEsMC42Mi0xLjY5LDEuNS0yLjAyLDIuNjRjLTAuMjksMS0wLjI3LDIuMDItMC4wNSwzLjA0ICAgICAgICAgYzAuNjEsMi43MywyLjcxLDMuOTEsNS4yNCwzLjczYzAuNzQtMC4wNSwxLjQ1LTAuMjksMi4xMi0wLjYyYzEtMC40NywxLjczLTEuMjEsMi4yMy0yLjE5YzAuNC0wLjgyLDAuNTctMS42OCwwLjU1LTIuNjYgICAgICAgICBDMTAuMzcsNjAuMTUsMTAuMzUsNTkuODMsMTAuMyw1OS41MnogTTcuODQsNjMuMzVjLTAuMzEsMC44My0wLjksMS4zMy0xLjc4LDEuNDVjLTAuNzYsMC4xMS0xLjQ2LTAuMDgtMi4xLTAuNTMgICAgICAgICBjLTAuNDctMC4zNS0wLjgzLTAuNzgtMS4wOS0xLjNDMi4xNiw2MS41MiwyLjA0LDYwLDIuNCw1OC40NGMwLjEyLTAuNDgsMC4zNi0wLjkxLDAuNzMtMS4yNmMwLjY0LTAuNTgsMS4zOC0wLjcyLDIuMjEtMC41NSAgICAgICAgIGMwLjc5LDAuMTcsMS40LDAuNiwxLjg4LDEuMjZzMC43MywxLjQyLDAuODYsMi4yMWMwLjA3LDAuNCwwLjA3LDAuODEsMC4wOSwxLjA3QzguMTcsNjIsOC4xLDYyLjY4LDcuODQsNjMuMzV6Ii8+JiN4YTsJCQkJCQk8L2c+JiN4YTsJCQkJCQk8ZyBpZD0ic2hhcGUzOTU0LTI1IiB0cmFuc2Zvcm09InRyYW5zbGF0ZSgzNy42MjYzLC01LjczNTUpIj4mI3hhOwkJCQkJCQk8dGl0bGUgaWQ9InRpdGxlMTAxMjc3Ij5wYXRoMjA8L3RpdGxlPiYjeGE7CQkJCQkJCTxwYXRoIGlkPSJwYXRoMTAxMjc5IiBpbmtzY2FwZTpjb25uZWN0b3ItY3VydmF0dXJlPSIwIiBzdHlsZT0iZmlsbDojNDc0NzRBOyIgZD0iTTEwLjQyLDU5LjY0ICAgICAgICAgYy0wLjE0LTEuMDEtMC41LTEuOTItMS4yMS0yLjY4Yy0wLjkzLTEuMDItMi4xNC0xLjQ1LTMuNDktMS40N2MtMS4xNi0wLjAyLTIuMjMsMC4zMS0zLjIyLDAuODggICAgICAgICBjLTEuMSwwLjY2LTEuODYsMS41OS0yLjE1LDIuODVjLTAuMzUsMS40Mi0wLjIxLDIuOCwwLjQxLDQuMTFjMC41NywxLjIxLDEuNTQsMS45OSwyLjgyLDIuMzRjMS40MSwwLjM4LDIuNzYsMC4yLDQuMDctMC40NCAgICAgICAgIGMxLjE0LTAuNTUsMS45Ni0xLjQxLDIuNDItMi41OWMwLjI4LTAuNjksMC4zOC0xLjQzLDAuNC0yLjNDMTAuNDksNjAuMTksMTAuNDUsNTkuOTEsMTAuNDIsNTkuNjR6IE04LjAzLDYzLjExICAgICAgICAgYy0wLjI3LDAuOTMtMC44NiwxLjU0LTEuODUsMS42N2MtMC43MiwwLjExLTEuNDEtMC4wNi0yLjAzLTAuNDhjLTAuNTQtMC4zNi0wLjkyLTAuODUtMS4yLTEuNDIgICAgICAgICBjLTAuMzEtMC42LTAuNDgtMS4yNC0wLjU1LTEuOWMtMC4xLTAuODEtMC4xLTEuNiwwLjA5LTIuNDFjMC4wMy0wLjE2LDAuMDgtMC4zMiwwLjE1LTAuNDdjMC40OS0xLjIxLDEuNTYtMS43NiwyLjgyLTEuNDkgICAgICAgICBjMC44NSwwLjE5LDEuNDgsMC42NiwxLjk3LDEuMzdjMC40NiwwLjY5LDAuNjksMS40NSwwLjc5LDIuMjZjMC4wNiwwLjMzLDAuMDcsMC42NywwLjA2LDAuOTcgICAgICAgICBDOC4yOCw2MS44OCw4LjIyLDYyLjUsOC4wMyw2My4xMXoiLz4mI3hhOwkJCQkJCTwvZz4mI3hhOwkJCQkJPC9nPiYjeGE7CQkJCTwvZz4mI3hhOwkJCTwvZz4mI3hhOwkJPC9nPiYjeGE7CTwvZz4mI3hhOzwvZz4mI3hhOzwvc3ZnPg==;strokeColor=#FFFFFF;fillColor=#FFB570;fontSize=50;fontColor=#000000;" vertex="1" parent="1">
          <mxGeometry x="2480" y="1010" width="278.88" height="176.72" as="geometry" />
        </mxCell>
        <mxCell id="Wtf6WgaonPSGz3_DOAq4-173" value="" style="shape=image;verticalLabelPosition=bottom;labelBackgroundColor=#ffffff;verticalAlign=top;aspect=fixed;imageAspect=0;image=data:image/svg+xml,PHN2ZyB4bWxuczpkYz0iaHR0cDovL3B1cmwub3JnL2RjL2VsZW1lbnRzLzEuMS8iIHhtbG5zOmNjPSJodHRwOi8vY3JlYXRpdmVjb21tb25zLm9yZy9ucyMiIHhtbG5zOnJkZj0iaHR0cDovL3d3dy53My5vcmcvMTk5OS8wMi8yMi1yZGYtc3ludGF4LW5zIyIgeG1sbnM6c3ZnPSJodHRwOi8vd3d3LnczLm9yZy8yMDAwL3N2ZyIgeG1sbnM9Imh0dHA6Ly93d3cudzMub3JnLzIwMDAvc3ZnIiB4bWxuczp4bGluaz0iaHR0cDovL3d3dy53My5vcmcvMTk5OS94bGluayIgeG1sbnM6c29kaXBvZGk9Imh0dHA6Ly9zb2RpcG9kaS5zb3VyY2Vmb3JnZS5uZXQvRFREL3NvZGlwb2RpLTAuZHRkIiB4bWxuczppbmtzY2FwZT0iaHR0cDovL3d3dy5pbmtzY2FwZS5vcmcvbmFtZXNwYWNlcy9pbmtzY2FwZSIgdmVyc2lvbj0iMS4xIiBpZD0iTGF5ZXJfMSIgeD0iMHB4IiB5PSIwcHgiIHZpZXdCb3g9IjAgMCAzNS45Mzk5OTUgMzUuOTUwMDAxIiB4bWw6c3BhY2U9InByZXNlcnZlIiBzb2RpcG9kaTpkb2NuYW1lPSJzYXBfc2VfcmFiYml0bXEuc3ZnIiB3aWR0aD0iMzUuOTM5OTk1IiBoZWlnaHQ9IjM1Ljk1MDAwMSIgaW5rc2NhcGU6dmVyc2lvbj0iMC45Mi4zICgyNDA1NTQ2LCAyMDE4LTAzLTExKSI+PG1ldGFkYXRhIGlkPSJtZXRhZGF0YTYwODc3Ij48cmRmOlJERj48Y2M6V29yayByZGY6YWJvdXQ9IiI+PGRjOmZvcm1hdD5pbWFnZS9zdmcreG1sPC9kYzpmb3JtYXQ+PGRjOnR5cGUgcmRmOnJlc291cmNlPSJodHRwOi8vcHVybC5vcmcvZGMvZGNtaXR5cGUvU3RpbGxJbWFnZSIvPjxkYzp0aXRsZS8+PC9jYzpXb3JrPjwvcmRmOlJERj48L21ldGFkYXRhPjxkZWZzIGlkPSJkZWZzNjA4NzUiLz48c29kaXBvZGk6bmFtZWR2aWV3IHBhZ2Vjb2xvcj0iI2ZmZmZmZiIgYm9yZGVyY29sb3I9IiM2NjY2NjYiIGJvcmRlcm9wYWNpdHk9IjEiIG9iamVjdHRvbGVyYW5jZT0iMTAiIGdyaWR0b2xlcmFuY2U9IjEwIiBndWlkZXRvbGVyYW5jZT0iMTAiIGlua3NjYXBlOnBhZ2VvcGFjaXR5PSIwIiBpbmtzY2FwZTpwYWdlc2hhZG93PSIyIiBpbmtzY2FwZTp3aW5kb3ctd2lkdGg9IjE5MjAiIGlua3NjYXBlOndpbmRvdy1oZWlnaHQ9IjEwMTciIGlkPSJuYW1lZHZpZXc2MDg3MyIgc2hvd2dyaWQ9ImZhbHNlIiBmaXQtbWFyZ2luLXRvcD0iMCIgZml0LW1hcmdpbi1sZWZ0PSIwIiBmaXQtbWFyZ2luLXJpZ2h0PSIwIiBmaXQtbWFyZ2luLWJvdHRvbT0iMCIgaW5rc2NhcGU6em9vbT0iMS4wMzAzMDMiIGlua3NjYXBlOmN4PSItMjUuMjI1MDA2IiBpbmtzY2FwZTpjeT0iLTE5Mi4wNCIgaW5rc2NhcGU6d2luZG93LXg9Ii04IiBpbmtzY2FwZTp3aW5kb3cteT0iLTgiIGlua3NjYXBlOndpbmRvdy1tYXhpbWl6ZWQ9IjEiIGlua3NjYXBlOmN1cnJlbnQtbGF5ZXI9IkxheWVyXzEiLz4mI3hhOyYjeGE7PGcgaWQ9Imc2MDg3MCIgdHJhbnNmb3JtPSJ0cmFuc2xhdGUoLTMyMi42MDAwMSwtMTkyLjc2KSI+JiN4YTsJPGRlZnMgaWQ9ImRlZnM2MDg1NSI+JiN4YTsJCTxyZWN0IGlkPSJTVkdJRF8zXyIgeD0iMzIyLjYwMDAxIiB5PSIxOTIuNzU5OTkiIHdpZHRoPSIzNi44MiIgaGVpZ2h0PSIzNi44MiIvPiYjeGE7CTwvZGVmcz4mI3hhOwk8Y2xpcFBhdGggaWQ9IlNWR0lEXzRfIj4mI3hhOwkJPHVzZSB4bGluazpocmVmPSIjU1ZHSURfM18iIHN0eWxlPSJvdmVyZmxvdzp2aXNpYmxlIiBpZD0idXNlNjA4NTciIHg9IjAiIHk9IjAiIHdpZHRoPSIxMDAlIiBoZWlnaHQ9IjEwMCUiLz4mI3hhOwk8L2NsaXBQYXRoPiYjeGE7CTxnIGNsaXAtcGF0aD0idXJsKCNTVkdJRF80XykiIGlkPSJnNjA4NjgiPiYjeGE7CQk8ZGVmcyBpZD0iZGVmczYwODYxIj4mI3hhOwkJCTxyZWN0IGlkPSJTVkdJRF81XyIgeD0iMzIyLjYwMDAxIiB5PSIxOTIuNzU5OTkiIHdpZHRoPSIzNi44MiIgaGVpZ2h0PSIzNi44MiIvPiYjeGE7CQk8L2RlZnM+JiN4YTsJCTxjbGlwUGF0aCBpZD0iU1ZHSURfNl8iPiYjeGE7CQkJPHVzZSB4bGluazpocmVmPSIjU1ZHSURfNV8iIHN0eWxlPSJvdmVyZmxvdzp2aXNpYmxlIiBpZD0idXNlNjA4NjMiIHg9IjAiIHk9IjAiIHdpZHRoPSIxMDAlIiBoZWlnaHQ9IjEwMCUiLz4mI3hhOwkJPC9jbGlwUGF0aD4mI3hhOwkJPHBhdGggc3R5bGU9ImZpbGw6I2ViNjAyMiIgZD0ibSAzNTEuMzUsMjE5LjM2IGMgMCwxLjIgLTAuOTYsMi4xNiAtMi4xNiwyLjE2IGggLTIuODggYyAtMS4yLDAgLTIuMTYsLTAuOTYgLTIuMTYsLTIuMTYgdiAtMi44OCBjIDAsLTEuMiAwLjk2LC0yLjE2IDIuMTYsLTIuMTYgaCAyLjg4IGMgMS4yLDAgMi4xNiwwLjk2IDIuMTYsMi4xNiB6IG0gNS43NSwtMTIuMjIgaCAtMTEuNSBjIC0wLjc4LDAgLTEuNDQsLTAuNjYgLTEuNDQsLTEuNDQgdiAtMTEuNSBjIDAsLTAuNzggLTAuNjYsLTEuNDQgLTEuNDQsLTEuNDQgaCAtNC4zMSBjIC0wLjc4LDAgLTEuNDQsMC42NiAtMS40NCwxLjQ0IHYgMTEuNSBjIDAsMC43OCAtMC42NiwxLjQ0IC0xLjQ0LDEuNDQgaCAtNC4zMSBjIC0wLjc4LDAgLTEuNDQsLTAuNjYgLTEuNDQsLTEuNDQgdiAtMTEuNSBjIDAsLTAuNzggLTAuNjYsLTEuNDQgLTEuNDQsLTEuNDQgaCAtNC4zMSBjIC0wLjc4LDAgLTEuNDQsMC42NiAtMS40NCwxLjQ0IHYgMzMuMDcgYyAwLDAuNzggMC42NiwxLjQ0IDEuNDQsMS40NCBoIDMzLjA3IGMgMC43OCwwIDEuNDQsLTAuNjYgMS40NCwtMS40NCB2IC0xOC42OSBjIDAsLTAuNzkgLTAuNjYsLTEuNDQgLTEuNDQsLTEuNDQiIGNsaXAtcGF0aD0idXJsKCNTVkdJRF82XykiIGlkPSJwYXRoNjA4NjYiIGlua3NjYXBlOmNvbm5lY3Rvci1jdXJ2YXR1cmU9IjAiLz4mI3hhOwk8L2c+JiN4YTs8L2c+JiN4YTs8L3N2Zz4=;strokeColor=#FFFFFF;fillColor=#FFB570;fontSize=50;fontColor=#000000;" vertex="1" parent="1">
          <mxGeometry x="2300" y="880" width="134.28" height="134.28" as="geometry" />
        </mxCell>
        <mxCell id="Wtf6WgaonPSGz3_DOAq4-175" value="" style="aspect=fixed;html=1;points=[];align=center;image;fontSize=12;image=img/lib/mscae/Security_Center.svg;strokeColor=#FFFFFF;fillColor=#FFB570;" vertex="1" parent="1">
          <mxGeometry x="2048.62" y="1045.72" width="115.2" height="160" as="geometry" />
        </mxCell>
        <mxCell id="Wtf6WgaonPSGz3_DOAq4-176" value="" style="aspect=fixed;html=1;points=[];align=center;image;fontSize=12;image=img/lib/mscae/DNS.svg;strokeColor=#FFFFFF;fillColor=#FFB570;" vertex="1" parent="1">
          <mxGeometry x="2362" y="1248.12" width="138" height="138" as="geometry" />
        </mxCell>
        <mxCell id="Wtf6WgaonPSGz3_DOAq4-177" value="" style="aspect=fixed;html=1;points=[];align=center;image;fontSize=12;image=img/lib/mscae/Kubernetes.svg;strokeColor=#FFFFFF;fillColor=#FFB570;" vertex="1" parent="1">
          <mxGeometry x="2680" y="1421.02" width="165.6" height="158.98" as="geometry" />
        </mxCell>
        <mxCell id="Wtf6WgaonPSGz3_DOAq4-178" value="" style="aspect=fixed;html=1;points=[];align=center;image;fontSize=12;image=img/lib/mscae/Docker.svg;strokeColor=#FFFFFF;fillColor=#FFB570;" vertex="1" parent="1">
          <mxGeometry x="2923.82" y="1560" width="203.36" height="166.75" as="geometry" />
        </mxCell>
        <mxCell id="Wtf6WgaonPSGz3_DOAq4-180" value="" style="aspect=fixed;html=1;points=[];align=center;image;fontSize=12;image=img/lib/mscae/HDInsight.svg;strokeColor=#FFFFFF;fillColor=#FFB570;" vertex="1" parent="1">
          <mxGeometry x="1809.91" y="900" width="144" height="138.24" as="geometry" />
        </mxCell>
        <mxCell id="Wtf6WgaonPSGz3_DOAq4-182" value="" style="aspect=fixed;html=1;points=[];align=center;image;fontSize=12;image=img/lib/mscae/Tenant_Status.svg;strokeColor=#FFFFFF;fillColor=#FFB570;" vertex="1" parent="1">
          <mxGeometry x="2110.56" y="751.26" width="127" height="138.04" as="geometry" />
        </mxCell>
        <mxCell id="Wtf6WgaonPSGz3_DOAq4-183" value="PAAS平台" style="text;html=1;strokeColor=none;fillColor=none;align=center;verticalAlign=middle;whiteSpace=wrap;rounded=0;fontSize=50;rotation=-30;" vertex="1" parent="1">
          <mxGeometry x="3161.87" y="1645.5" width="420" height="59" as="geometry" />
        </mxCell>
      </root>
    </mxGraphModel>
  </diagram>
</mxfile>
